<?xml version="1.0" standalone="no"?>
<!DOCTYPE svg PUBLIC "-//W3C//DTD SVG 20010904//EN"
 "http://www.w3.org/TR/2001/REC-SVG-20010904/DTD/svg10.dtd">
<svg version="1.0" xmlns="http://www.w3.org/2000/svg"
 width="1024.000000pt" height="1024.000000pt" viewBox="0 0 1024.000000 1024.000000"
 preserveAspectRatio="xMidYMid meet">
<metadata>
Created by potrace 1.14, written by Peter Selinger 2001-2017
</metadata>
<g transform="translate(0.000000,1024.000000) scale(0.100000,-0.100000)"
fill="#000000" stroke="none">
<path d="M4925 8789 c-886 -88 -1733 -505 -2289 -1125 -231 -258 -355 -432
-516 -723 -122 -222 -278 -647 -324 -886 -14 -71 -32 -166 -40 -211 -9 -44
-16 -109 -17 -145 -1 -99 -28 -471 -34 -477 -3 -3 -6 75 -6 174 -1 98 -3 168
-5 154 -3 -14 -9 -42 -15 -63 -7 -27 -7 -42 1 -52 7 -8 10 -58 8 -136 -3 -120
-4 -124 -26 -127 -33 -5 -40 -27 -41 -137 -2 -94 -1 -101 20 -110 21 -9 22
-15 19 -95 -5 -121 -4 -141 7 -149 6 -3 12 -55 14 -116 4 -108 4 -110 -19
-113 -30 -5 -39 -27 -36 -99 4 -158 1 -143 33 -143 17 0 32 -3 35 -8 2 -4 6
-61 7 -127 3 -120 3 -120 -22 -125 -27 -6 -38 -30 -13 -30 14 0 15 -10 9 -77
-4 -43 -11 -79 -15 -81 -13 -5 1 -46 22 -63 18 -14 20 -33 25 -235 3 -120 9
-223 14 -228 4 -5 23 -11 41 -12 66 -7 77 -12 70 -36 -3 -14 -1 -19 6 -14 6 3
13 -2 17 -13 3 -10 21 -35 40 -54 19 -20 35 -45 35 -57 0 -11 7 -20 15 -20 9
0 15 -9 15 -24 0 -23 -4 -24 -80 -31 -78 -7 -80 -8 -68 -27 7 -11 16 -18 19
-16 13 6 49 -35 49 -56 0 -12 9 -32 20 -46 17 -21 20 -22 20 -7 0 16 2 17 15
3 9 -8 15 -19 14 -23 -4 -23 2 -43 11 -38 6 3 10 48 10 100 0 52 4 96 8 99 19
11 51 -8 68 -40 10 -19 22 -34 27 -34 17 0 88 -80 81 -92 -5 -7 -3 -8 6 -3 16
10 30 -12 30 -47 l0 -27 -87 -3 c-55 -2 -88 -7 -90 -15 -2 -6 12 -26 31 -44
20 -18 36 -36 36 -40 0 -14 48 -57 67 -61 13 -2 19 -14 21 -46 2 -23 7 -42 11
-42 4 0 6 15 5 33 l-3 32 7 -30 c4 -17 14 -30 22 -30 12 0 16 23 20 125 3 69
7 114 8 100 2 -24 19 -39 65 -56 9 -3 17 -11 17 -16 0 -5 4 -7 9 -4 5 4 7 -4
3 -16 -5 -21 -4 -22 13 -8 17 14 18 14 7 -7 -18 -32 -15 -38 9 -17 15 13 11 2
-13 -41 -30 -53 -38 -61 -73 -68 -88 -19 -99 -23 -118 -49 -17 -23 -19 -32 -9
-52 6 -14 7 -26 3 -28 -5 -2 -15 -30 -23 -63 -13 -53 -18 -60 -46 -67 -36 -9
-36 -3 7 -128 12 -36 24 -73 26 -83 6 -29 15 -37 40 -37 13 0 35 -4 49 -10 23
-8 26 -15 26 -59 0 -40 3 -49 15 -45 8 3 21 -1 30 -9 16 -17 168 -34 204 -22
17 5 23 1 32 -21 6 -17 13 -24 17 -18 8 13 13 14 112 21 41 2 78 9 81 15 4 6
15 2 28 -11 l21 -21 0 85 0 85 113 0 c61 0 117 -4 123 -8 6 -4 14 -56 18 -117
4 -60 8 -110 9 -111 1 -2 57 -6 125 -10 l122 -7 0 -93 0 -94 33 -1 c25 0 28
-2 12 -8 -15 -6 -11 -9 20 -14 22 -4 54 -7 70 -7 23 0 27 -3 15 -10 -11 -7 -1
-10 36 -10 50 0 52 1 58 31 3 17 6 69 6 115 0 77 1 83 20 81 11 -1 20 -8 20
-16 0 -11 4 -10 15 5 12 14 14 15 9 2 -5 -13 3 -18 43 -23 26 -4 63 -11 80
-17 18 -5 37 -7 43 -3 6 4 10 -21 10 -70 0 -117 -2 -115 145 -115 l125 0 0
-45 c0 -44 14 -61 23 -28 4 15 5 15 6 -2 1 -18 7 -20 46 -17 35 3 45 1 45 -11
0 -15 40 -27 90 -27 31 0 53 -20 45 -42 -3 -8 1 -21 10 -28 9 -7 15 -8 15 -2
0 13 186 5 212 -9 33 -18 38 -10 39 59 0 37 4 76 9 87 5 11 9 16 9 11 1 -5 8
-3 16 4 8 7 15 8 15 3 0 -5 17 -10 38 -11 20 -2 63 -6 95 -11 39 -5 57 -4 58
3 2 32 20 -48 26 -111 l6 -73 128 0 129 0 0 53 c0 91 3 95 66 86 30 -4 78 -4
108 0 78 11 86 4 86 -79 l0 -70 -114 0 c-63 0 -121 -3 -130 -6 -25 -10 -19
-21 11 -21 15 0 29 -6 31 -12 2 -6 28 -11 63 -11 47 0 59 3 59 16 0 11 6 14
22 8 21 -6 56 -34 51 -41 -2 -2 -2 -6 -1 -10 0 -5 4 12 7 37 l6 45 105 5 c58
3 111 9 118 13 6 5 12 4 12 -1 0 -5 7 -9 15 -9 11 0 15 13 16 56 0 66 15 151
19 111 2 -18 4 -20 7 -7 2 9 8 15 13 12 8 -5 78 2 187 19 24 3 22 12 39 -139
4 -33 9 -53 11 -44 5 19 66 42 91 35 9 -3 33 -1 52 4 25 7 36 7 42 -3 5 -8 8
-6 8 8 0 17 2 17 10 5 8 -12 10 -9 10 12 0 43 20 44 21 1 2 -42 4 -31 15 82 4
54 8 62 32 72 40 17 204 33 342 33 78 0 119 4 115 10 -3 6 1 10 9 10 15 0 23
45 29 155 2 42 5 50 22 52 11 1 66 5 122 9 l101 7 7 -79 c7 -92 12 -120 14
-82 1 15 10 33 23 42 21 15 21 16 3 16 -31 0 -1 16 77 41 45 15 68 27 71 40 5
18 -2 19 -89 19 l-94 0 0 41 c0 30 6 47 22 60 11 11 24 19 27 19 3 0 18 10 31
23 31 27 84 57 100 57 7 0 18 7 25 17 23 32 35 4 35 -85 0 -48 4 -92 8 -97 5
-7 18 -7 41 1 22 7 29 13 20 17 -10 4 -9 6 4 6 10 1 35 12 55 26 20 14 42 25
49 25 7 0 13 7 13 15 0 18 16 20 23 3 4 -10 6 -10 6 0 2 21 29 13 34 -10 2
-13 5 11 6 53 l1 76 -46 7 c-26 3 -79 6 -118 6 -63 1 -68 2 -48 13 12 7 19 16
16 20 -4 4 4 7 19 7 14 0 29 5 32 10 3 5 15 10 25 10 10 0 21 8 25 18 6 21 45
42 75 42 18 0 20 -7 20 -61 l0 -61 77 4 c48 2 78 8 81 16 5 16 79 16 85 0 10
-30 16 5 17 112 3 172 25 279 43 205 4 -17 5 -16 6 5 2 23 3 23 16 -9 20 -44
19 -61 -2 -62 -10 0 2 -6 27 -12 35 -9 46 -17 48 -35 2 -12 9 -22 16 -22 8 0
16 -17 20 -39 3 -22 14 -46 24 -53 12 -8 21 -31 25 -60 l6 -46 -64 -7 c-36 -4
-79 -8 -97 -9 -27 -1 -32 -6 -35 -31 -3 -22 -1 -26 6 -15 9 12 17 8 50 -24 26
-25 44 -36 53 -31 7 5 10 4 5 0 -4 -5 0 -17 10 -27 9 -10 13 -18 8 -18 -4 0
-2 -7 5 -15 6 -8 9 -19 5 -25 -3 -5 -2 -10 4 -10 6 0 19 -10 30 -21 30 -32 51
-18 52 33 0 24 4 52 8 63 8 20 8 20 15 -2 9 -29 64 -97 84 -104 9 -3 -11 -9
-44 -13 l-60 -7 4 -30 c3 -22 7 -27 13 -18 7 11 10 9 15 -8 4 -14 17 -24 38
-29 17 -3 36 -10 41 -15 6 -4 32 -9 58 -10 26 -2 47 -6 47 -11 0 -13 24 -4 32
12 4 8 7 31 7 51 1 21 6 36 14 37 101 9 217 9 217 0 0 -6 8 -4 18 4 12 11 51
17 127 22 60 4 114 11 118 15 9 9 38 161 39 199 0 13 2 21 5 19 2 -3 19 9 38
27 24 22 38 46 46 81 6 28 20 69 31 92 19 39 19 45 5 66 -9 15 -14 39 -11 68
2 24 6 68 8 97 3 38 12 63 32 89 31 41 35 80 10 118 -26 40 -74 55 -173 55
-48 0 -93 4 -100 8 -6 4 -41 75 -78 157 -36 83 -76 160 -87 173 -27 28 -78 29
-104 2 -10 -11 -55 -91 -99 -178 l-80 -157 -93 -2 c-51 -1 -107 -6 -124 -12
-26 -9 -29 -8 -24 5 3 9 6 33 6 55 l0 39 45 0 c26 0 58 6 73 14 27 14 79 64
75 72 -8 13 -1 17 7 4 8 -13 11 -11 16 7 4 13 11 20 20 16 11 -4 14 5 14 40 0
90 12 135 45 174 17 21 40 54 51 73 10 19 25 41 32 48 6 7 12 20 12 27 0 8 10
16 23 20 39 11 67 28 67 41 0 7 5 14 10 16 6 2 16 47 22 101 12 96 12 98 41
105 22 6 37 21 58 61 16 30 27 56 24 59 -3 3 5 21 17 40 l22 36 -25 18 c-25
19 -25 20 -13 80 7 34 11 65 8 70 -3 5 2 29 12 53 14 38 22 46 54 55 31 8 39
16 46 43 12 51 12 167 0 167 -6 0 -5 4 3 9 8 5 11 16 6 30 -4 15 -3 19 7 16
16 -6 60 59 57 83 -2 9 6 43 16 75 16 49 17 60 5 67 -8 5 -18 6 -22 4 -11 -7
-10 47 2 126 14 96 32 170 41 170 4 0 8 8 7 18 0 9 3 157 7 327 15 626 -45
1007 -236 1483 -79 197 -131 305 -226 465 -224 380 -474 676 -796 942 -520
430 -1187 722 -1827 801 -157 19 -692 28 -835 13z m550 -9 c353 -22 604 -65
875 -152 345 -109 759 -321 1055 -538 512 -377 936 -926 1168 -1515 118 -300
164 -477 219 -845 18 -118 18 -741 0 -870 -34 -247 -101 -543 -157 -695 -18
-49 -35 -97 -38 -105 -7 -23 -13 -1 -31 119 l-15 104 38 156 c81 328 105 529
104 876 -1 301 -16 458 -69 700 -42 197 -70 288 -141 475 -249 651 -709 1222
-1289 1603 -342 225 -741 400 -1094 481 -89 20 -333 62 -455 78 -126 16 -542
16 -690 0 -1027 -113 -1861 -577 -2445 -1357 -85 -114 -225 -343 -292 -478
-322 -647 -417 -1425 -268 -2177 17 -85 44 -194 61 -243 29 -85 30 -107 6
-107 -7 0 -20 -14 -29 -30 -29 -52 -31 -50 -80 89 -155 442 -191 1128 -87
1646 102 511 297 960 587 1355 324 439 703 769 1174 1019 315 167 740 310
1103 370 115 19 320 38 470 44 39 2 90 4 115 5 25 1 117 -3 205 -8z m-126
-133 c-2 -2 -74 -25 -159 -52 -310 -95 -549 -218 -825 -425 -321 -240 -564
-528 -740 -875 -339 -668 -375 -1470 -95 -2183 41 -106 161 -352 207 -425 51
-82 160 -243 201 -297 23 -30 42 -62 42 -71 0 -30 28 -85 72 -140 39 -49 72
-95 91 -126 4 -6 3 -15 -3 -18 -6 -4 -9 -1 -8 6 2 6 -3 14 -11 17 -10 3 -12 0
-8 -11 3 -9 -22 14 -57 51 -180 193 -326 387 -451 598 -185 311 -316 714 -361
1104 -13 113 -15 198 -11 380 6 259 18 352 72 568 130 518 376 950 741 1302
95 91 209 189 294 253 25 18 25 18 -5 1 -54 -30 -178 -128 -261 -206 -272
-252 -464 -516 -615 -843 -65 -142 -67 -147 -88 -210 -72 -221 -105 -333 -106
-355 -1 -14 -12 -81 -25 -150 -22 -114 -24 -151 -24 -415 0 -250 3 -310 23
-435 37 -244 79 -398 172 -632 120 -303 219 -467 512 -848 28 -36 84 -99 125
-142 77 -79 82 -92 57 -150 -5 -14 -2 -18 15 -18 12 0 37 -7 56 -16 36 -17
124 -91 124 -104 0 -4 -21 -13 -47 -20 -76 -21 -196 -85 -263 -141 -43 -36
-67 -49 -75 -43 -23 17 -120 95 -169 137 -62 52 -220 209 -305 302 -35 39 -54
56 -42 38 39 -58 270 -290 392 -394 65 -56 119 -107 119 -114 0 -7 -7 -18 -15
-25 -12 -10 -20 -9 -42 6 -26 16 -201 155 -235 186 -87 79 -89 79 -8 -2 52
-53 109 -106 125 -118 17 -13 51 -39 78 -58 26 -20 47 -39 47 -43 0 -4 -16
-13 -35 -21 -19 -8 -35 -20 -35 -27 0 -7 -4 -13 -10 -13 -5 0 -10 3 -10 8 0 4
-19 6 -41 4 -23 -3 -44 0 -48 5 -3 6 -40 18 -83 27 -45 10 -79 23 -82 31 -3 9
-19 15 -41 15 -19 0 -35 4 -35 9 0 5 -15 12 -34 15 -19 4 -39 13 -46 21 -7 8
-17 15 -22 15 -5 0 -16 6 -23 12 -43 39 -45 40 -47 21 0 -10 -4 38 -8 107 -11
201 -58 351 -145 467 -20 27 -50 67 -68 90 -17 24 -39 46 -50 49 -10 3 -16 12
-13 20 3 9 -7 17 -35 24 -26 7 -37 15 -33 23 4 7 4 9 -1 5 -4 -4 -31 6 -59 23
-61 34 -174 65 -274 74 l-71 7 -20 48 c-43 99 -84 273 -120 500 -5 30 -9 44
-10 30 -2 -45 40 -272 80 -428 21 -84 39 -155 39 -157 0 -3 -7 -5 -15 -5 -21
0 -41 44 -80 180 -71 247 -105 504 -105 796 0 292 28 482 114 786 60 207 113
341 216 543 110 214 145 271 324 523 147 207 415 494 598 639 115 92 302 223
410 288 68 41 94 62 85 68 -8 6 -6 7 6 3 9 -3 42 7 73 21 44 22 51 29 37 35
-14 6 -12 7 6 4 13 -3 31 -1 40 3 76 38 191 79 454 162 272 85 385 106 591
108 66 0 117 -1 115 -2z m428 -213 c23 -43 43 -66 75 -85 24 -14 41 -30 39
-35 -2 -5 -24 -17 -49 -26 -49 -19 -92 -54 -92 -75 0 -23 -14 -14 -61 35 -29
31 -60 52 -87 60 -51 16 -53 27 -7 42 44 15 69 40 101 103 14 27 30 47 37 45
7 -3 26 -31 44 -64z m-1687 -94 c-8 -5 -19 -10 -25 -10 -5 0 -3 5 5 10 8 5 20
10 25 10 6 0 3 -5 -5 -10z m-125 -59 c-6 -5 -21 -12 -35 -15 l-25 -7 25 15
c28 17 50 21 35 7z m2240 -29 c-11 -11 -34 8 -28 24 6 15 7 15 20 -1 7 -10 11
-21 8 -23z m-1116 -8 c-15 -18 -22 -13 -13 10 3 9 10 13 16 10 5 -3 4 -12 -3
-20z m-1189 6 c0 -5 -5 -10 -11 -10 -5 0 -7 5 -4 10 3 6 8 10 11 10 2 0 4 -4
4 -10z m-130 -30 c-30 -16 -59 -29 -65 -29 -5 0 15 13 45 29 30 16 60 29 65
29 6 0 -15 -13 -45 -29z m2430 -6 c0 -9 -7 -14 -17 -12 -25 5 -28 28 -4 28 12
0 21 -6 21 -16z m-2360 -5 c-8 -5 -68 -37 -133 -70 -80 -40 -133 -75 -163
-105 -37 -38 -46 -44 -63 -35 -13 8 -22 8 -26 1 -9 -14 -124 -90 -137 -90 -6
0 -27 -18 -45 -40 -19 -22 -44 -45 -55 -51 -18 -10 -19 -9 -8 11 7 12 10 31 7
41 -8 29 19 49 64 49 31 0 51 9 92 40 29 21 63 48 77 58 23 18 178 103 262
144 20 10 44 18 53 18 8 0 15 3 15 8 0 9 39 29 60 31 13 1 13 0 0 -10z m1250
-15 c0 -8 -4 -14 -10 -14 -5 0 -10 9 -10 21 0 11 5 17 10 14 6 -3 10 -13 10
-21z m1120 -24 c0 -5 -4 -12 -10 -15 -11 -7 22 -76 72 -148 23 -34 51 -58 92
-80 33 -18 61 -37 63 -42 2 -6 -23 -17 -54 -25 -32 -8 -56 -19 -53 -23 3 -5
-3 -13 -13 -18 -10 -6 -35 -33 -57 -61 -22 -27 -40 -46 -40 -41 -1 4 -6 -5
-13 -21 l-12 -28 -34 53 c-19 30 -46 67 -60 83 -29 32 -94 65 -128 66 -39 0
-25 26 28 50 28 13 61 35 74 48 28 28 109 171 101 179 -11 11 14 42 29 37 8
-4 15 -10 15 -14z m-1119 -23 c-1 -4 -1 -14 -1 -22 0 -8 -7 -15 -15 -15 -16 0
-19 9 -9 35 6 15 26 17 25 2z m4 -84 c1 -16 -4 -23 -17 -23 -13 0 -18 7 -18
26 0 33 33 30 35 -3z m-1645 -17 c0 -2 -7 -7 -16 -10 -8 -3 -12 -2 -9 4 6 10
25 14 25 6z m1646 -58 c-5 -23 -1 -37 13 -52 11 -12 42 -64 71 -116 28 -52 56
-101 63 -107 7 -7 58 -17 116 -21 91 -8 106 -12 128 -35 42 -41 26 -67 -117
-199 -25 -23 -39 -38 -33 -34 9 5 11 2 7 -8 -3 -9 -11 -13 -16 -10 -6 4 -8 -1
-5 -12 8 -26 26 -172 26 -213 0 -20 -8 -41 -21 -55 -12 -11 -17 -15 -13 -7 6
11 3 13 -14 8 -13 -3 -20 -3 -17 0 6 6 -13 19 -69 48 -16 8 -41 23 -55 33 -15
10 -21 12 -16 4 7 -11 4 -12 -12 -3 -29 15 -72 14 -106 -4 -15 -8 -33 -12 -39
-8 -5 3 -7 2 -4 -4 6 -9 -103 -63 -129 -63 -7 0 -21 11 -30 25 -18 28 -14 113
11 207 9 38 9 52 0 65 -7 9 -17 13 -23 9 -6 -3 -14 -1 -18 5 -4 8 -3 9 4 5 14
-8 15 3 3 23 -5 7 -14 11 -20 7 -6 -4 -9 -1 -5 7 5 14 -64 97 -80 97 -5 0 8
-18 28 -40 48 -53 46 -64 -2 -14 -105 106 -83 149 85 165 112 10 114 12 165
114 17 33 46 82 65 109 27 37 33 54 26 65 -14 22 -5 41 19 41 18 0 20 -4 14
-32z m1971 -134 c-3 -3 -12 -4 -19 -1 -8 3 -5 6 6 6 11 1 17 -2 13 -5z m1 -47
c2 -9 -3 -17 -10 -17 -8 0 -14 9 -14 20 0 24 20 21 24 -3z m10 -69 c22 -59 80
-127 127 -150 25 -12 44 -27 42 -32 -2 -6 -23 -16 -46 -23 -41 -12 -131 -89
-131 -112 0 -27 -22 -17 -39 17 -24 47 -72 90 -109 98 -79 17 -79 22 -2 61 50
25 58 35 90 100 19 40 40 72 45 73 6 0 16 -15 23 -32z m-3938 13 c0 -5 3 -16
6 -24 5 -14 -20 -47 -36 -47 -5 0 -16 8 -26 17 -15 16 -15 18 10 40 28 24 46
29 46 14z m-136 -136 c4 -11 -1 -15 -19 -15 -29 0 -42 17 -18 23 30 8 31 8 37
-8z m1150 -69 c-7 -30 -24 -35 -24 -8 0 18 20 45 27 38 2 -2 1 -15 -3 -30z
m-1234 -15 c0 -47 -24 -62 -53 -32 -20 19 -20 20 9 45 39 34 44 33 44 -13z
m1244 -42 c-3 -5 -10 -7 -15 -3 -5 3 -7 10 -3 15 3 5 10 7 15 3 5 -3 7 -10 3
-15z m-4 -29 c12 -23 6 -40 -15 -40 -16 0 -23 18 -17 43 6 23 19 22 32 -3z
m-1330 -35 c0 -17 -22 -35 -42 -35 -30 0 -33 28 -7 56 22 23 24 24 36 8 7 -10
13 -23 13 -29z m1334 -47 c9 -35 8 -38 -14 -38 -14 0 -20 7 -20 23 0 41 24 51
34 15z m-1432 -65 c29 -26 23 -68 -11 -83 -37 -15 -64 -7 -82 26 -13 24 -12
28 14 50 33 28 54 30 79 7z m1430 -19 c10 -21 9 -27 -3 -34 -20 -13 -43 12
-34 39 9 28 23 27 37 -5z m4 -91 c-1 -39 6 -58 42 -117 87 -141 109 -164 192
-206 43 -21 80 -46 83 -54 7 -18 -19 -41 -57 -50 -53 -13 -196 -123 -196 -151
0 -6 -11 -22 -25 -35 -14 -13 -25 -31 -25 -41 0 -10 -4 -21 -10 -24 -5 -3 -10
-1 -10 5 0 7 -6 10 -13 7 -15 -6 -38 17 -95 95 -23 31 -52 64 -64 74 -18 13
-19 15 -4 10 15 -5 17 -4 8 7 -18 22 -104 65 -140 70 -19 3 -36 8 -39 11 -15
14 14 40 81 72 82 38 101 59 193 209 37 60 47 85 40 96 -7 11 -4 24 8 42 25
39 33 33 31 -20z m2499 7 c3 -11 18 -28 32 -39 l25 -20 -38 -37 -39 -36 -17
24 c-10 13 -23 29 -29 36 -9 10 -5 20 15 41 14 15 26 32 26 39 0 19 18 14 25
-8z m810 -107 c-54 -82 -59 -96 -63 -182 -3 -80 -2 -90 26 -141 54 -100 166
-159 280 -146 67 8 66 -6 -2 -42 -130 -68 -292 -21 -377 110 -22 35 -39 53
-43 46 -3 -7 -2 0 1 16 3 17 2 27 -4 23 -5 -3 -10 22 -11 59 -4 103 47 199
136 255 60 38 81 39 57 2z m315 -28 c7 -20 20 -37 33 -41 25 -7 57 -33 57 -45
0 -5 -32 -33 -70 -64 l-70 -56 -61 52 c-67 59 -73 84 -24 109 37 18 45 29 45
58 0 19 5 22 39 22 36 0 40 -3 51 -35z m-5216 -101 c22 -9 21 -44 -2 -44 -21
0 -42 18 -42 37 0 14 18 17 44 7z m3773 -122 c84 -40 237 -113 340 -163 104
-50 244 -117 313 -149 69 -33 150 -72 180 -88 68 -36 490 -234 624 -293 124
-55 176 -100 176 -153 0 -33 -3 -37 -22 -34 -16 2 -24 -3 -29 -22 -7 -24 -7
-24 -14 8 -4 18 -12 35 -17 38 -6 4 -30 -17 -55 -45 -25 -29 -82 -80 -127
-114 -44 -33 -209 -187 -366 -342 -253 -248 -517 -500 -541 -515 -4 -3 -108
-105 -231 -226 -123 -121 -270 -262 -328 -314 -58 -51 -163 -151 -235 -220
-141 -138 -174 -160 -233 -160 -40 0 -128 26 -137 40 -3 4 18 0 45 -11 97 -37
138 -24 237 71 117 113 256 243 323 304 36 32 139 131 231 220 91 88 266 258
389 376 123 118 303 292 400 385 96 94 225 219 287 279 61 60 133 123 158 142
26 18 71 60 100 92 l54 59 -177 86 c-230 112 -543 263 -657 317 -49 23 -137
65 -195 93 -58 27 -132 62 -165 78 -33 15 -104 48 -158 73 -54 25 -100 46
-103 46 -2 0 -57 25 -122 57 -91 43 -130 57 -177 61 -33 2 -57 1 -53 -3 4 -5
0 -14 -10 -22 -12 -10 -8 -9 15 2 21 10 43 13 60 9 32 -8 85 -39 84 -48 -2
-13 24 -34 30 -24 4 6 12 4 20 -5 8 -7 20 -12 28 -9 8 3 11 0 7 -6 -3 -5 1
-13 10 -16 8 -3 13 -2 9 3 -3 5 14 0 37 -12 24 -12 45 -22 48 -23 48 -14 70
-28 58 -36 -10 -7 -8 -8 7 -7 11 2 38 -5 60 -15 99 -42 95 -39 77 -52 -13 -10
-6 -13 39 -19 29 -4 65 -14 79 -23 14 -10 41 -23 60 -29 l35 -13 -37 4 c-21 3
-38 0 -40 -6 -3 -7 -10 -8 -16 -4 -18 11 -14 26 6 19 9 -3 5 4 -10 16 -17 14
-37 21 -50 18 -20 -4 -20 -4 4 -6 15 0 30 -6 34 -12 5 -8 -1 -10 -20 -7 -14 3
-26 2 -26 -1 0 -6 268 -140 465 -232 119 -55 355 -168 475 -227 41 -20 75 -42
75 -49 0 -6 -63 -71 -140 -144 -283 -268 -332 -315 -450 -428 -66 -63 -185
-178 -265 -256 -256 -247 -391 -370 -406 -369 -7 1 -11 -2 -9 -7 8 -11 -137
-149 -148 -142 -6 3 -7 2 -4 -4 3 -5 -18 -34 -48 -63 -30 -30 -55 -51 -55 -48
0 4 -23 -18 -51 -47 -28 -30 -56 -52 -61 -49 -13 8 -40 -17 -34 -32 4 -11 -40
-58 -153 -163 -41 -38 -42 -37 -176 35 -55 30 -185 97 -290 149 -104 52 -206
103 -225 114 -19 10 -100 51 -180 90 -80 39 -179 89 -220 110 -41 21 -93 47
-115 56 -90 40 -341 168 -357 182 -10 9 -18 21 -18 28 0 11 207 218 460 460
370 353 646 621 750 725 63 64 122 121 132 126 9 5 112 103 229 218 117 115
227 217 244 227 25 16 26 19 10 19 -29 0 -62 -23 -135 -94 -11 -11 -23 -17
-26 -13 -4 3 1 13 10 22 9 9 16 19 16 23 0 8 -46 -35 -134 -123 -38 -38 -74
-69 -79 -67 -5 2 -7 -4 -3 -13 5 -13 1 -15 -15 -10 -13 5 -19 3 -15 -3 3 -5
-5 -13 -19 -16 -14 -4 -25 -11 -25 -17 0 -6 5 -7 11 -3 8 4 8 0 0 -15 -14 -25
-23 -28 -14 -4 4 11 -8 6 -40 -16 -27 -18 -44 -37 -41 -44 5 -13 -34 -72 -42
-64 -2 2 -24 -15 -49 -37 -134 -124 -186 -154 -75 -43 41 41 78 73 81 71 4 -2
9 6 12 17 4 16 11 20 26 16 14 -3 18 -1 14 9 -3 9 1 14 12 14 9 0 13 5 9 11
-4 6 16 32 45 60 55 52 72 81 19 33 -18 -16 -40 -36 -48 -45 -8 -9 -105 -101
-215 -205 -110 -103 -206 -194 -213 -201 -7 -7 -11 -17 -8 -22 3 -5 -1 -14 -9
-21 -10 -9 -15 -9 -15 -1 0 6 5 11 12 11 6 0 8 3 5 7 -4 3 -44 -29 -90 -73
-45 -43 -123 -117 -172 -164 -50 -47 -171 -162 -270 -256 -99 -94 -209 -197
-245 -229 -109 -98 -270 -260 -270 -272 0 -6 9 -13 20 -16 39 -10 19 -25 -54
-41 -41 -10 -84 -26 -97 -36 -12 -11 -17 -20 -10 -20 7 0 9 -5 6 -10 -4 -6 -9
-8 -13 -6 -12 7 -5 -206 8 -254 30 -110 99 -207 188 -266 31 -20 76 -50 99
-65 l42 -28 7 22 c4 12 19 38 35 57 l27 36 -44 23 c-130 70 -175 131 -182 252
-6 100 4 106 89 55 34 -20 64 -35 66 -32 3 2 -10 12 -29 22 -36 18 -85 54 -74
54 3 0 23 -11 44 -23 20 -13 79 -45 130 -72 51 -26 91 -50 88 -52 -3 -3 -17 2
-31 11 -14 9 -25 13 -25 8 0 -12 49 -34 60 -27 4 3 16 2 26 -2 16 -6 16 -7 -2
-15 -15 -7 -14 -7 6 -4 15 3 47 -6 80 -23 211 -105 360 -184 356 -188 -2 -3
-13 0 -24 6 -34 18 -39 12 -7 -8 17 -10 33 -14 36 -9 3 5 40 -8 82 -28 53 -26
73 -41 64 -47 -8 -6 -6 -7 5 -3 15 5 163 -65 178 -84 3 -4 28 -16 55 -29 99
-44 154 -75 148 -84 -3 -5 4 -6 16 -2 14 4 21 2 21 -7 0 -8 25 -26 56 -41 30
-15 53 -23 49 -17 -3 6 0 7 9 4 9 -3 13 -11 9 -17 -3 -5 -1 -7 4 -4 6 4 45 -9
87 -28 94 -43 128 -44 187 -7 61 39 260 227 708 667 134 132 251 247 260 255
117 109 637 609 781 750 l118 116 6 -44 c3 -25 6 -63 6 -85 0 -22 5 -55 12
-73 11 -30 10 -33 -28 -65 -21 -18 -169 -162 -329 -319 -259 -255 -1050 -1031
-1433 -1405 -79 -77 -147 -141 -152 -143 -7 -3 -1183 582 -1218 606 -11 7 -8
17 12 47 14 21 26 46 26 55 0 20 -163 100 -202 100 -28 0 -74 -29 -47 -30 9 0
24 -9 34 -20 10 -11 26 -20 36 -20 10 0 20 -4 23 -9 3 -4 20 -12 38 -16 18 -4
36 -9 41 -10 4 -1 12 -3 19 -4 7 0 3 -10 -9 -23 -43 -47 -92 -136 -127 -233
-20 -55 -50 -129 -67 -164 l-30 -64 -21 34 c-11 19 -27 38 -34 42 -8 5 -12 12
-9 17 10 16 -81 39 -121 30 -21 -5 -40 -8 -41 -6 -2 1 21 50 51 108 55 109 95
211 74 190 -18 -18 -143 52 -203 114 -48 50 -145 217 -145 250 0 9 -4 13 -9
10 -5 -3 -9 4 -9 17 0 12 -1 56 -3 97 l-2 75 -10 -60 c-16 -94 4 -204 50 -280
20 -33 41 -63 47 -67 7 -5 7 -8 -2 -8 -20 0 -87 113 -112 189 -18 58 -22 87
-18 159 6 132 28 170 185 316 71 65 187 176 258 245 72 70 281 270 465 446
448 428 809 775 1011 971 201 195 237 217 349 212 69 -3 87 -10 227 -76z
m-3877 -29 c28 -36 22 -56 -23 -67 -32 -8 -40 -7 -62 14 l-24 23 20 28 c26 37
61 38 89 2z m2485 -176 c9 -18 30 -40 46 -50 37 -21 37 -31 -1 -47 -17 -7 -37
-22 -45 -33 -14 -21 -15 -20 -59 11 -24 18 -49 32 -55 32 -22 0 -10 25 20 43
17 9 36 31 42 47 15 39 30 38 52 -3z m975 15 c0 -4 -18 -27 -40 -50 -22 -22
-40 -38 -40 -33 0 4 9 17 20 29 11 12 20 24 20 27 0 9 24 34 33 35 4 0 7 -4 7
-8z m-3602 -100 c4 -14 -35 -35 -54 -28 -17 7 -18 38 -2 54 9 9 16 9 32 -1 11
-8 22 -19 24 -25z m3512 14 c0 -3 -16 -22 -35 -43 -19 -21 -35 -35 -35 -30 0
7 60 77 67 77 1 0 3 -2 3 -4z m2244 -103 c27 -30 27 -32 9 -50 -10 -10 -25
-30 -35 -43 -16 -24 -16 -24 -24 -5 -4 11 -16 27 -26 36 -20 18 -24 39 -8 39
6 0 18 16 27 35 9 19 19 32 22 28 4 -5 19 -22 35 -40z m-2324 12 c0 -10 -60
-65 -71 -65 -6 0 -1 9 12 20 13 10 18 19 12 20 -7 0 -13 5 -13 12 0 9 3 9 11
1 9 -9 15 -8 26 3 15 14 23 18 23 9z m1014 -24 c4 -5 -3 -7 -14 -4 -23 6 -26
13 -6 13 8 0 17 -4 20 -9z m75 -27 c10 -9 -35 -3 -49 6 -11 8 -7 9 15 4 17 -4
32 -8 34 -10z m-4572 -16 c42 -40 24 -78 -37 -78 -24 0 -43 7 -55 20 -18 20
-18 21 10 50 34 36 51 37 82 8z m4604 8 c-10 -12 -8 -13 8 -9 12 3 21 1 21 -6
0 -13 -29 -14 -49 -2 -11 7 -10 11 5 20 26 14 29 14 15 -3z m-1201 -19 c0 -2
-17 -19 -37 -38 -24 -21 -30 -25 -18 -9 26 33 55 58 55 47z m-1549 -258 c27
-49 45 -68 87 -91 49 -28 66 -48 41 -48 -19 0 -83 -33 -100 -52 -9 -10 -20
-18 -25 -18 -6 0 -15 -14 -22 -32 -11 -29 -13 -31 -25 -15 -7 10 -24 23 -37
30 -14 7 -25 21 -25 32 0 22 -34 42 -87 51 -21 4 -38 12 -38 18 0 6 23 22 52
36 42 21 57 36 87 87 20 34 41 62 47 63 5 0 26 -28 45 -61z m1193 -24 c-7 -16
-24 -21 -24 -6 0 8 7 13 27 20 1 1 0 -6 -3 -14z m-99 -155 c-32 -33 -61 -58
-63 -55 -4 4 109 114 118 115 2 0 -22 -27 -55 -60z m-3067 8 c2 -12 -5 -19
-23 -24 -34 -8 -53 9 -35 31 17 20 54 16 58 -7z m2956 -100 c-3 -7 -17 -22
-32 -32 -27 -19 -27 -19 2 12 32 35 38 38 30 20z m-2965 -72 l23 -25 -32 -31
-31 -31 -29 21 c-42 30 -45 39 -19 66 29 31 59 31 88 0z m2871 -20 c0 -2 -8
-10 -17 -17 -16 -13 -17 -12 -4 4 13 16 21 21 21 13z m-90 -89 c0 -2 -10 -12
-22 -23 l-23 -19 19 23 c18 21 26 27 26 19z m2990 -105 c101 -42 136 -65 145
-93 8 -25 -12 -69 -32 -69 -7 0 -13 -4 -13 -10 0 -5 -7 -7 -15 -4 -8 4 -15 1
-15 -4 0 -6 -20 -32 -45 -57 -25 -26 -42 -51 -39 -56 3 -5 -3 -6 -13 -2 -10 3
-15 3 -11 -1 7 -8 -26 -46 -40 -46 -12 0 -41 -38 -35 -44 4 -3 1 -6 -7 -6 -7
0 -73 -61 -147 -135 -78 -79 -138 -133 -145 -129 -6 4 -9 3 -5 -2 9 -15 -20
-47 -35 -38 -7 4 -10 3 -5 -1 9 -10 -21 -45 -40 -45 -7 0 -13 -5 -13 -11 0
-14 -58 -69 -73 -69 -6 0 -7 -3 -4 -7 9 -9 -13 -34 -24 -27 -5 3 -9 -2 -9 -10
0 -9 -11 -18 -25 -22 -16 -4 -25 -13 -25 -25 0 -10 -6 -19 -14 -19 -8 0 -21
-8 -28 -17 -7 -10 -22 -23 -33 -29 -10 -6 -27 -25 -37 -43 -10 -18 -33 -45
-51 -59 -17 -15 -63 -60 -103 -99 -39 -40 -75 -73 -80 -73 -5 0 -15 -9 -22
-20 -7 -11 -19 -20 -27 -20 -8 0 -14 -4 -12 -9 2 -9 -59 -73 -78 -82 -5 -2 -9
-7 -7 -11 1 -5 -3 -8 -8 -8 -20 0 -82 -59 -74 -71 3 -5 -2 -6 -10 -3 -10 4
-16 1 -16 -9 0 -9 -5 -19 -12 -23 -7 -5 -8 -2 -3 7 4 8 -3 3 -17 -11 -13 -14
-40 -39 -59 -55 -19 -17 -43 -42 -54 -56 -11 -14 -24 -27 -30 -30 -5 -2 -9 -8
-7 -12 1 -5 -2 -6 -7 -3 -12 8 -87 -62 -83 -79 3 -13 -81 -90 -98 -90 -18 0
-120 -97 -114 -108 4 -7 4 -9 -1 -5 -9 8 -56 -33 -197 -170 l-87 -84 -408 205
c-989 497 -969 486 -945 524 6 9 22 5 62 -16 114 -58 824 -419 1040 -528 124
-62 233 -112 242 -111 10 2 73 57 140 123 68 67 177 172 243 235 223 212 758
733 1115 1085 195 193 410 404 478 470 67 65 122 123 122 127 0 11 -62 37 -81
34 -17 -2 -58 -25 -46 -26 7 0 0 -11 -31 -45 -7 -8 -11 -15 -8 -15 3 0 -22
-26 -57 -57 -34 -31 -184 -176 -334 -322 -280 -275 -592 -576 -596 -576 -3 0
395 397 727 725 147 146 277 278 288 293 22 31 25 24 -34 91 -43 48 -11 45
122 -12z m-5729 -93 c14 -28 -1 -44 -35 -35 -28 7 -33 25 -14 44 18 18 36 15
49 -9z m76 -161 c-2 -29 -3 -6 -3 52 0 58 1 81 3 53 2 -29 2 -77 0 -105z
m-180 65 c3 -7 -3 -9 -16 -6 -12 3 -21 10 -21 15 0 13 32 6 37 -9z m36 -131
c27 -28 26 -35 -10 -65 -21 -18 -22 -18 -62 5 -48 27 -50 39 -15 67 36 28 55
26 87 -7z m6157 -109 c14 -26 41 -58 60 -71 37 -25 49 -42 30 -42 -27 0 -77
-32 -94 -60 -21 -37 -33 -38 -48 -5 -7 15 -33 36 -66 52 -49 24 -53 28 -36 37
29 17 77 69 96 104 9 17 21 32 25 32 4 0 19 -21 33 -47z m-6551 -50 c0 -5 -4
-17 -9 -28 -8 -18 -9 -17 -9 8 -1 15 4 27 9 27 6 0 10 -3 9 -7z m415 -184 c35
-27 33 -55 -4 -74 -32 -17 -54 -11 -80 20 -11 13 -9 20 15 45 34 36 35 36 69
9z m2226 -163 c299 -150 645 -328 655 -338 6 -6 -188 89 -429 211 -241 121
-442 223 -445 226 -13 14 64 -21 219 -99z m-230 9 c17 -9 30 -18 30 -21 0 -2
-14 3 -31 12 -38 19 -45 12 -55 -54 -8 -56 9 -143 41 -204 14 -26 21 -48 16
-48 -14 0 -47 50 -71 105 -25 58 -28 170 -4 203 18 26 34 27 74 7z m4025 -150
c96 -25 165 -64 235 -135 67 -68 120 -157 120 -203 0 -30 -16 -36 -24 -9 -4 9
-16 28 -27 42 -16 19 -15 15 5 -20 59 -106 70 -274 26 -405 -25 -74 -110 -245
-122 -245 -4 0 -7 -3 -7 -7 3 -20 -2 -34 -11 -28 -5 3 -11 1 -11 -4 -1 -6 -2
-17 -3 -23 -1 -7 -7 -12 -13 -11 -6 1 -9 -6 -6 -16 5 -19 -192 -274 -302 -391
-28 -30 -83 -89 -121 -130 -94 -102 -250 -245 -360 -329 -184 -141 -636 -412
-859 -514 -424 -194 -941 -306 -1420 -307 -247 0 -691 50 -880 100 -102 27
-221 72 -171 64 21 -3 52 -11 70 -18 51 -22 175 -44 436 -78 225 -29 268 -31
525 -31 313 0 423 11 715 70 255 51 473 117 638 194 138 64 212 103 207 107
-2 2 -29 -5 -60 -17 -31 -12 -59 -21 -63 -21 -4 0 76 42 178 94 102 51 216
114 253 140 68 45 95 57 81 34 -4 -7 -3 -8 5 -4 6 4 9 11 6 16 -3 4 6 15 18
23 13 8 58 43 100 77 83 66 94 91 57 125 -19 17 -21 17 -57 0 -21 -10 -93 -51
-161 -92 -115 -69 -315 -170 -426 -214 -27 -11 -68 -28 -90 -38 -55 -25 -313
-110 -506 -168 -50 -15 -330 -65 -410 -73 -52 -6 -108 -12 -125 -15 -16 -3
-70 -7 -120 -10 -49 -2 -133 -7 -185 -10 -103 -7 -219 -7 -231 1 -4 2 -43 6
-86 9 -43 3 -116 7 -162 10 -47 3 -136 17 -199 30 -62 14 -123 25 -134 25 -11
0 -34 6 -51 14 -42 19 -77 26 -77 16 0 -17 304 -80 540 -112 123 -17 577 -16
730 1 189 21 380 55 560 101 149 38 448 145 585 210 170 80 276 133 327 162
112 65 219 132 224 140 9 14 41 9 55 -8 11 -13 11 -17 -1 -25 -8 -5 -60 -38
-115 -74 -144 -93 -478 -265 -491 -253 -2 3 72 44 166 92 93 48 170 89 170 92
0 2 -80 -36 -177 -84 -194 -96 -259 -125 -401 -173 -51 -17 -91 -33 -89 -35 4
-4 195 57 269 87 29 11 48 16 43 10 -6 -6 -93 -40 -193 -76 -174 -62 -226 -77
-192 -55 20 13 8 13 -26 0 -65 -25 -349 -92 -488 -115 -389 -64 -738 -69
-1112 -15 -303 43 -572 133 -688 227 -45 37 -46 15 -1 -24 22 -20 27 -26 10
-14 -76 55 -78 56 -83 43 -10 -31 -58 -74 -115 -102 -146 -71 -331 -66 -480
13 -37 19 -56 35 -53 44 3 7 0 13 -6 13 -24 0 -135 129 -158 184 -16 38 -29
56 -41 56 -38 0 -93 47 -275 238 -254 264 -383 406 -412 455 -12 20 -24 27
-47 27 -48 0 -160 36 -222 71 -123 70 -232 212 -269 349 -10 36 -21 67 -24 70
-12 11 -30 63 -30 89 0 39 34 169 61 232 25 57 109 165 167 215 125 105 307
162 486 151 302 -18 562 -232 636 -523 52 -204 -3 -529 -95 -557 -40 -13 -165
-87 -165 -98 0 -5 -6 -9 -14 -9 -7 0 -21 -11 -30 -25 -9 -14 -27 -27 -41 -31
-14 -3 -25 -12 -25 -20 0 -17 -16 -18 -26 -2 -5 7 -3 8 6 3 8 -5 11 -4 7 2 -4
6 -17 8 -30 6 -25 -5 -151 11 -179 22 -52 21 33 -114 135 -213 l45 -44 17 54
c55 166 204 294 390 333 95 20 167 19 259 -5 99 -25 176 -69 249 -142 32 -32
60 -58 62 -58 1 0 5 19 9 42 19 117 105 266 212 369 86 82 128 110 225 148
314 125 658 37 858 -218 58 -74 98 -156 117 -238 20 -87 21 -287 0 -363 -8
-30 -17 -66 -21 -80 -4 -14 3 -5 14 19 12 24 29 81 38 127 l16 84 36 -5 c270
-38 613 -30 889 20 111 21 332 78 406 105 l56 22 -2 78 c-2 44 -4 75 -6 70 -9
-26 -22 -5 -22 33 0 109 76 236 182 306 95 62 177 84 296 79 129 -6 198 -33
269 -104 51 -51 76 -88 31 -47 -13 11 -34 24 -47 28 -20 6 -18 1 14 -26 99
-86 159 -189 171 -289 l7 -60 35 32 c20 17 65 45 101 61 53 25 79 31 137 31
80 1 78 12 -4 22 -63 8 -155 -21 -214 -67 l-37 -29 -7 37 c-12 69 -46 147 -90
210 -24 34 -47 69 -50 77 -7 17 42 92 89 136 78 74 198 117 298 106 188 -19
323 -153 348 -346 l10 -75 -4 82 c-4 110 -46 204 -121 272 -68 62 -127 89
-225 103 -79 11 -81 12 -125 62 -47 54 -73 121 -75 190 0 28 -3 35 -8 23 -6
-18 -8 -18 -21 -2 -11 13 -11 27 -2 76 33 177 180 330 358 373 79 19 187 19
259 1z m-1365 -148 c0 -2 -15 -16 -32 -33 l-33 -29 29 33 c28 30 36 37 36 29z
m-1612 -129 c64 -34 160 -84 212 -111 52 -27 100 -53 105 -59 11 -12 -424 210
-439 223 -22 20 11 6 122 -53z m992 -13 c-19 -19 -37 -35 -42 -35 -8 0 63 69
71 70 3 0 -10 -16 -29 -35z m-4463 -7 c-3 -7 -5 -2 -5 12 0 14 2 19 5 13 2 -7
2 -19 0 -25z m4 -70 c2 -20 0 -40 -4 -44 -4 -4 -7 14 -7 41 0 56 7 57 11 3z
m4384 2 c-3 -5 -12 -10 -18 -10 -7 0 -6 4 3 10 19 12 23 12 15 0z m-510 -125
c52 -32 40 -32 -16 0 -24 14 -39 25 -34 25 6 0 28 -11 50 -25z m-15 -111 c0
-2 -13 2 -30 11 -16 9 -30 18 -30 21 0 2 14 -2 30 -11 17 -9 30 -18 30 -21z
m-3813 -100 c11 -10 11 -22 2 -56 -6 -24 -14 -64 -18 -90 -8 -48 -27 -82 -42
-72 -10 6 -12 227 -2 237 9 9 43 -2 60 -19z m5894 -14 c23 0 -7 -23 -67 -51
-73 -35 -167 -115 -193 -167 l-18 -35 1 44 c2 54 31 96 99 146 53 39 135 75
155 68 8 -3 18 -5 23 -5z m-3181 -90 c37 -33 41 -40 24 -40 -27 0 -70 33 -77
60 -7 28 2 25 53 -20z m-2580 -155 c0 -5 -5 -3 -10 5 -5 8 -10 20 -10 25 0 6
5 3 10 -5 5 -8 10 -19 10 -25z m4490 -516 c13 -9 12 -10 -2 -5 -11 3 -21 -2
-28 -14 -5 -10 -18 -19 -28 -19 -9 0 -35 -4 -57 -9 -120 -29 -208 -42 -275
-41 -116 2 -141 14 -45 23 44 4 152 22 240 40 194 40 177 38 195 25z m-777
-79 c128 -4 213 -7 190 -8 -31 -2 -43 -6 -43 -17 0 -13 -23 -15 -148 -15 -164
0 -256 14 -284 42 -19 19 -18 19 17 12 20 -3 141 -10 268 -14z m215 -27 c-10
-2 -28 -2 -40 0 -13 2 -5 4 17 4 22 1 32 -1 23 -4z m2628 -107 c15 -19 55 -96
88 -172 69 -156 64 -151 181 -153 39 -1 86 -6 106 -11 44 -12 73 -51 63 -83
-11 -33 -46 -77 -57 -70 -6 3 -7 1 -3 -6 4 -6 0 -14 -11 -18 -10 -4 -38 -26
-62 -50 -24 -24 -47 -40 -52 -37 -5 3 -9 2 -8 -3 1 -4 -2 -19 -6 -31 -6 -18
-10 -21 -17 -10 -7 9 -8 7 -2 -7 11 -29 43 -214 43 -252 1 -48 -8 -63 -39 -63
-35 0 -126 31 -185 64 -43 25 -110 33 -125 16 -3 -3 -42 -23 -87 -43 -61 -29
-92 -38 -120 -35 -36 4 -38 6 -41 40 -3 34 28 223 43 260 5 11 -15 40 -64 97
-39 44 -76 83 -81 86 -6 4 -7 11 -4 17 4 6 2 8 -4 4 -15 -9 -62 37 -62 61 0
11 11 30 24 42 21 20 38 24 118 28 146 7 130 -7 214 171 71 149 97 192 115
192 5 0 20 -15 35 -34z m-6243 -201 c-7 -21 -13 -19 -13 6 0 11 4 18 10 14 5
-3 7 -12 3 -20z m251 -215 c33 -61 69 -90 110 -90 31 0 76 -23 76 -39 0 -5
-21 -32 -47 -61 -45 -50 -46 -53 -44 -111 2 -55 0 -60 -24 -69 -19 -7 -36 -6
-62 5 -45 19 -73 19 -109 0 -16 -8 -41 -15 -56 -15 -21 0 -28 6 -33 29 -3 16
-3 46 1 65 6 34 3 40 -45 91 -28 29 -51 58 -51 64 0 17 42 39 90 46 54 9 66
17 90 66 23 43 46 69 64 69 7 0 25 -22 40 -50z m5423 -66 c-3 -3 -12 -4 -19
-1 -8 3 -5 6 6 6 11 1 17 -2 13 -5z m-1244 -213 c-61 -38 -119 -63 -208 -92
-49 -16 -94 -29 -100 -29 -20 1 127 63 220 94 28 9 61 23 75 31 38 22 50 18
13 -4z m1045 -13 c-3 -7 -10 -13 -16 -12 -59 5 -58 5 -37 14 30 13 57 12 53
-2z m-1403 -18 c-11 -5 -27 -9 -35 -9 -9 0 -8 4 5 9 11 5 27 9 35 9 9 0 8 -4
-5 -9z m-58 -16 c-3 -3 -12 -4 -19 -1 -8 3 -5 6 6 6 11 1 17 -2 13 -5z m-37
-8 c0 -6 -102 -27 -107 -22 -3 2 15 9 39 14 51 12 68 14 68 8z m-1780 -16 c18
-12 2 -12 -25 0 -13 6 -15 9 -5 9 8 0 22 -4 30 -9z m1567 -36 c-3 -3 -12 -4
-19 -1 -8 3 -5 6 6 6 11 1 17 -2 13 -5z m-1370 -10 c-3 -3 -12 -4 -19 -1 -8 3
-5 6 6 6 11 1 17 -2 13 -5z m153 -24 c68 -12 84 -17 45 -14 -67 6 -201 31
-170 32 11 0 67 -8 125 -18z m1525 0 c-22 -11 -49 -19 -60 -20 -12 0 -25 -4
-30 -8 -13 -12 -148 -36 -166 -30 -8 3 11 10 41 15 30 6 80 18 110 26 30 8 58
13 62 11 5 -3 8 -1 8 5 0 10 22 18 55 20 12 0 4 -7 -20 -19z m-457 3 c-10 -2
-26 -2 -35 0 -10 3 -2 5 17 5 19 0 27 -2 18 -5z m-70 -10 c-10 -2 -26 -2 -35
0 -10 3 -2 5 17 5 19 0 27 -2 18 -5z m-75 -10 c-7 -2 -19 -2 -25 0 -7 3 -2 5
12 5 14 0 19 -2 13 -5z m-735 -10 c-10 -2 -26 -2 -35 0 -10 3 -2 5 17 5 19 0
27 -2 18 -5z m640 0 c-10 -2 -28 -2 -40 0 -13 2 -5 4 17 4 22 1 32 -1 23 -4z
m947 -12 c-149 -67 -503 -161 -745 -198 -204 -30 -573 -42 -780 -24 -240 20
-208 29 85 23 444 -8 756 26 1085 117 95 27 149 41 205 54 28 7 56 16 63 21 7
4 15 6 18 3 3 -2 21 2 42 9 55 19 73 16 27 -5z m-1442 2 c-18 -2 -48 -2 -65 0
-18 2 -4 4 32 4 36 0 50 -2 33 -4z m360 0 c-18 -2 -48 -2 -65 0 -18 2 -4 4 32
4 36 0 50 -2 33 -4z m-2696 -98 c-5 -11 -21 -12 -94 -6 l-28 2 30 14 c17 7 26
14 21 14 -6 1 -1 7 10 15 14 11 21 11 26 3 5 -7 8 -2 8 13 0 20 2 22 10 10 8
-12 10 -10 12 10 1 14 3 5 5 -19 3 -24 2 -49 0 -56z m2501 88 c-21 -2 -57 -2
-80 0 -24 2 -7 4 37 4 44 0 63 -2 43 -4z m2429 -45 c-3 -7 -5 -2 -5 12 0 14 2
19 5 13 2 -7 2 -19 0 -25z m-2099 -35 c-10 -2 -26 -2 -35 0 -10 3 -2 5 17 5
19 0 27 -2 18 -5z m2189 -49 c-3 -3 -12 -4 -19 -1 -8 3 -5 6 6 6 11 1 17 -2
13 -5z m-4457 -162 c0 -12 3 -13 8 -5 5 8 13 9 22 3 8 -6 26 -10 40 -11 23 0
23 -1 5 -8 -18 -8 -16 -10 15 -19 l35 -10 -47 -2 c-116 -6 -113 -6 -110 15 6
47 13 65 22 60 6 -3 10 -14 10 -23z m760 -233 c0 -5 24 -15 53 -24 55 -16 85
-31 77 -38 -3 -3 -41 -6 -85 -8 -60 -3 -80 -1 -79 9 1 6 2 25 3 40 0 18 7 29
16 29 8 0 15 -4 15 -8z m2000 -239 c0 -5 -12 -10 -27 -9 l-28 1 25 8 c14 4 26
8 28 9 1 1 2 -3 2 -9z"/>
<path d="M3910 8139 c-17 -13 -18 -17 -5 -10 33 17 51 31 40 31 -5 0 -21 -10
-35 -21z"/>
<path d="M3798 8067 c-211 -142 -534 -439 -689 -632 -61 -76 -226 -303 -244
-335 -16 -30 13 7 110 140 127 174 174 230 309 370 180 186 361 342 522 451
41 27 74 52 74 54 0 7 0 8 -82 -48z"/>
<path d="M2352 5145 c0 -16 2 -22 5 -12 2 9 2 23 0 30 -3 6 -5 -1 -5 -18z"/>
<path d="M2791 5004 c0 -11 3 -14 6 -6 3 7 2 16 -1 19 -3 4 -6 -2 -5 -13z"/>
<path d="M2851 4810 c0 -18 27 -79 28 -64 1 7 -6 27 -14 45 -8 19 -14 27 -14
19z"/>
<path d="M2901 4682 c-1 -14 27 -72 35 -72 2 0 -2 12 -9 28 -8 15 -17 34 -20
42 -4 10 -6 11 -6 2z"/>
<path d="M3260 4235 c0 -4 9 -18 20 -32 11 -14 20 -22 20 -18 0 4 -9 18 -20
32 -11 14 -20 22 -20 18z"/>
<path d="M3342 4120 c7 -11 17 -20 22 -20 5 0 1 9 -9 20 -10 11 -20 20 -22 20
-2 0 2 -9 9 -20z"/>
<path d="M3429 3886 c27 -29 33 -32 25 -13 -2 7 -14 19 -27 26 -21 13 -21 12
2 -13z"/>
<path d="M3470 3846 c0 -2 8 -10 18 -17 15 -13 16 -12 3 4 -13 16 -21 21 -21
13z"/>
<path d="M6028 6823 c7 -3 16 -2 19 1 4 3 -2 6 -13 5 -11 0 -14 -3 -6 -6z"/>
<path d="M5990 6759 c0 -5 5 -7 10 -4 6 3 10 8 10 11 0 2 -4 4 -10 4 -5 0 -10
-5 -10 -11z"/>
<path d="M5882 6709 c-19 -17 -32 -32 -30 -35 3 -2 20 12 38 31 42 43 37 45
-8 4z"/>
<path d="M5954 6540 c-84 -84 -143 -150 -134 -150 18 0 115 92 217 205 l63 68
137 -65 c76 -36 156 -74 178 -83 72 -31 475 -227 662 -321 152 -76 186 -89
199 -79 14 10 -17 28 -200 118 -119 59 -218 107 -220 107 -2 0 -84 39 -182 86
-99 48 -223 106 -278 131 -54 24 -139 64 -187 89 -49 24 -92 44 -96 44 -5 0
-76 -68 -159 -150z"/>
<path d="M5765 6599 c-38 -38 -67 -69 -63 -69 9 0 142 129 137 133 -2 2 -35
-27 -74 -64z"/>
<path d="M6096 6613 c-14 -15 -4 -33 18 -33 14 0 28 -4 31 -10 8 -13 38 -13
33 1 -2 6 -8 11 -13 11 -6 0 -22 9 -36 19 -14 10 -29 16 -33 12z"/>
<path d="M6540 6575 c0 -8 29 -12 39 -5 9 5 4 8 -13 8 -14 0 -26 -2 -26 -3z"/>
<path d="M6050 6564 c0 -18 76 -60 128 -70 21 -4 32 -3 32 5 0 12 -11 14 -48
11 -12 -1 -25 6 -28 14 -3 9 -15 16 -25 16 -11 0 -22 7 -25 15 -6 14 -34 22
-34 9z"/>
<path d="M6202 6548 c5 -15 28 -18 29 -3 0 6 -7 12 -17 13 -10 3 -15 -1 -12
-10z"/>
<path d="M6267 6534 c-13 -13 -7 -24 14 -24 11 0 19 5 17 12 -5 14 -22 21 -31
12z"/>
<path d="M6615 6530 c-3 -6 1 -7 9 -4 18 7 21 14 7 14 -6 0 -13 -4 -16 -10z"/>
<path d="M6007 6509 c-8 -30 -6 -31 26 -16 26 12 36 27 18 27 -5 0 -16 3 -24
6 -9 3 -16 -3 -20 -17z"/>
<path d="M6326 6478 c-5 -24 -9 -29 -18 -20 -15 15 -58 16 -58 2 0 -5 11 -10
24 -10 14 0 28 -5 32 -11 9 -15 43 28 44 54 0 29 -17 19 -24 -15z"/>
<path d="M6056 6464 c-5 -12 -2 -15 10 -10 8 3 18 6 20 6 2 0 4 5 4 10 0 16
-27 11 -34 -6z"/>
<path d="M6117 6474 c-9 -10 2 -24 19 -24 8 0 14 7 14 15 0 15 -21 21 -33 9z"/>
<path d="M6396 6461 c-21 -23 -20 -31 4 -31 20 0 110 -42 514 -239 126 -62
235 -110 243 -106 25 9 0 28 -84 65 -43 19 -154 72 -247 118 -93 46 -212 104
-265 129 -52 24 -107 53 -122 64 -25 18 -27 18 -43 0z"/>
<path d="M5940 6450 c0 -5 5 -10 11 -10 7 0 18 -8 25 -17 9 -14 16 -15 24 -7
9 9 4 16 -21 28 -38 19 -39 19 -39 6z"/>
<path d="M6175 6440 c-10 -11 -24 -20 -32 -20 -7 0 -13 -4 -13 -10 0 -5 9 -10
20 -10 11 0 20 4 20 10 0 5 16 12 35 16 29 5 33 9 24 20 -16 19 -33 17 -54 -6z"/>
<path d="M6031 6416 c-10 -12 -8 -16 8 -21 24 -7 61 2 61 16 0 5 -6 9 -14 9
-8 0 -21 2 -29 5 -7 3 -19 -1 -26 -9z"/>
<path d="M5931 6404 c13 -16 39 -19 39 -5 0 5 -11 11 -25 13 -20 4 -23 3 -14
-8z"/>
<path d="M6240 6396 c-14 -8 -41 -21 -60 -30 -24 -11 -29 -16 -15 -16 21 0
125 45 125 55 0 9 -24 5 -50 -9z"/>
<path d="M6330 6395 c-10 -12 -9 -16 6 -22 11 -3 161 -76 334 -160 173 -85
336 -164 363 -175 40 -17 47 -25 47 -48 l0 -28 -72 35 c-200 97 -389 189 -543
264 -93 46 -174 83 -180 82 -5 -1 -37 -12 -70 -23 -53 -19 -75 -21 -179 -17
l-119 5 -141 -143 c-78 -78 -179 -178 -226 -221 -47 -44 -115 -106 -150 -139
-36 -34 -105 -99 -155 -145 -154 -143 -247 -230 -335 -314 -47 -45 -100 -93
-119 -107 l-34 -27 32 -62 c17 -35 31 -75 31 -89 0 -22 -32 -122 -54 -172 -5
-12 40 -40 226 -136 451 -234 512 -263 522 -253 14 14 29 13 20 -2 -4 -7 -3
-8 4 -4 6 4 9 12 6 19 -3 7 -172 95 -376 197 -204 102 -373 191 -376 197 -12
39 52 13 390 -157 199 -100 370 -187 379 -193 13 -8 28 -6 60 8 l43 20 -40 8
c-45 9 -788 377 -791 392 -2 6 2 17 7 25 7 11 12 12 18 3 4 -6 37 -25 72 -42
36 -16 85 -42 109 -57 l44 -27 -6 24 c-4 13 -7 40 -7 59 0 31 -4 37 -31 47
-18 7 -36 10 -40 7 -5 -3 -9 2 -9 12 0 13 7 15 35 12 29 -3 35 -1 35 14 0 27
-53 24 -82 -4 l-23 -23 22 -23 c12 -13 23 -18 25 -12 5 15 58 -27 58 -45 0
-11 -6 -12 -32 -3 -18 6 -37 17 -41 25 -5 7 -13 10 -19 7 -6 -4 -16 0 -22 8
-6 8 -29 21 -51 29 l-40 14 37 3 c45 4 68 31 68 80 0 25 -4 33 -14 29 -8 -3
-22 1 -33 8 -17 13 -17 15 -1 31 17 17 18 17 39 -2 12 -10 35 -19 53 -19 24 0
31 -4 31 -20 0 -16 -6 -19 -27 -17 -16 2 -28 -1 -28 -7 0 -6 16 -11 35 -11 31
0 35 3 35 25 0 34 -36 68 -63 61 -11 -3 -27 0 -34 5 -14 13 -6 23 40 53 24 16
27 17 27 2 0 -9 -4 -16 -10 -16 -5 0 -10 -4 -10 -10 0 -5 8 -10 19 -10 16 0
19 9 20 60 0 33 -3 60 -7 60 -5 0 -22 -15 -39 -32 -63 -67 -161 -158 -171
-158 -5 0 -13 8 -17 18 -5 13 10 32 57 76 35 33 167 159 293 281 127 122 311
297 410 390 99 92 225 214 280 271 55 57 108 104 117 104 40 0 25 -27 -66
-119 -53 -53 -96 -99 -96 -103 0 -21 70 19 115 67 29 30 61 55 71 55 18 1 18
1 1 11 -17 10 -16 13 17 35 28 19 50 25 106 27 38 1 70 6 70 10 0 5 6 7 13 4
6 -2 26 2 44 10 47 19 65 17 148 -22 63 -30 75 -39 75 -59 0 -14 -6 -27 -12
-29 -7 -3 2 -6 20 -6 18 -1 42 4 54 10 23 12 67 -2 93 -31 15 -16 12 -18 -42
-24 -32 -4 -132 -20 -223 -36 -91 -17 -182 -30 -202 -30 -62 0 -389 -50 -413
-63 -13 -6 -75 -61 -138 -122 -63 -60 -146 -138 -186 -173 -39 -35 -69 -68
-65 -73 3 -5 0 -8 -8 -7 -7 2 -12 -3 -10 -10 1 -8 -2 -11 -9 -7 -6 4 -52 -33
-107 -86 -106 -103 -140 -148 -122 -159 6 -4 16 -54 21 -111 7 -62 16 -110 25
-120 16 -18 18 -36 4 -41 -13 -4 7 -218 23 -236 25 -31 45 -32 209 -6 90 14
177 32 195 39 22 9 60 12 125 9 69 -4 107 -1 148 11 92 27 142 36 220 38 l74
2 81 74 c44 41 152 144 240 230 88 86 200 194 248 239 l88 84 -7 123 c-6 114
-8 124 -28 129 -16 5 -18 8 -7 15 10 7 12 31 6 117 -4 60 -11 119 -16 132 -6
15 -5 22 4 22 22 0 55 -29 61 -55 4 -16 13 -25 26 -25 11 0 43 -11 72 -25 28
-14 55 -25 59 -25 3 0 27 -12 52 -26 30 -16 44 -30 41 -39 -7 -16 -41 -30 -66
-26 -11 1 -18 -4 -18 -13 0 -18 18 -20 53 -7 21 8 26 6 30 -9 3 -11 2 -20 -2
-22 -4 -2 -22 -25 -40 -53 l-32 -50 45 47 c42 43 45 45 60 29 9 -10 16 -20 16
-23 0 -4 -42 -43 -92 -89 -51 -45 -190 -175 -308 -287 -250 -239 -302 -288
-390 -367 -36 -32 -123 -113 -195 -180 -237 -222 -234 -220 -293 -215 -12 1
-38 -4 -58 -10 -30 -10 -38 -9 -55 6 -16 15 -24 16 -39 7 -14 -10 -19 -9 -24
2 -3 8 -16 15 -30 15 -20 0 -36 16 -36 36 0 10 47 2 64 -11 11 -8 29 -12 39
-9 11 4 23 1 28 -7 10 -16 105 -21 134 -7 11 6 41 31 67 56 36 35 45 49 36 59
-14 17 -29 16 -56 -3 -22 -15 -22 -17 -5 -29 21 -16 17 -22 -17 -27 -21 -2
-26 2 -28 23 -2 18 -11 29 -25 33 -38 10 -43 6 -12 -11 l30 -17 -35 -9 c-35
-9 -53 -25 -44 -39 3 -4 -6 -8 -20 -8 -14 0 -26 4 -26 9 0 5 -11 12 -25 15
-14 4 -25 11 -25 16 0 6 -5 10 -11 10 -8 0 -8 -4 0 -14 9 -11 9 -16 0 -21 -15
-10 -31 17 -19 29 18 18 10 36 -14 36 -21 0 -24 -4 -20 -24 3 -18 -1 -26 -15
-31 -10 -3 -18 -13 -17 -22 0 -9 -4 -18 -11 -20 -7 -3 -9 3 -6 17 4 15 1 20
-13 19 -11 -1 -35 -1 -54 -1 -54 3 -21 24 39 25 40 1 50 4 46 15 -3 7 -5 18
-5 23 0 17 -37 9 -55 -11 -22 -24 -55 -29 -35 -5 11 13 9 15 -13 15 -17 0 -24
-5 -23 -16 2 -24 -20 -29 -26 -6 -3 12 -18 21 -38 25 -82 17 -64 1 84 -73 133
-67 168 -80 210 -81 43 -1 47 -2 26 -10 -17 -6 -8 -7 30 -3 30 3 94 9 142 13
l88 6 147 146 c82 80 173 167 203 194 30 27 177 166 325 310 333 321 439 421
489 463 l40 32 -21 22 c-30 33 -43 63 -43 97 0 17 -4 31 -10 31 -5 0 -10 5
-10 11 0 5 5 7 10 4 6 -3 15 6 20 22 6 15 15 36 20 45 15 27 12 35 -16 42 -14
4 -190 85 -390 181 -200 96 -365 175 -368 175 -2 0 -9 -7 -16 -15z m176 -192
c-8 -8 -36 5 -36 17 0 7 6 7 21 0 11 -7 18 -14 15 -17z m-47 -327 c9 -11 6
-26 -14 -69 -30 -67 -31 -96 -5 -130 25 -32 25 -41 -1 -77 -22 -29 -22 -40 0
-109 9 -29 8 -35 -12 -52 -85 -70 -96 -82 -102 -112 -21 -106 -22 -107 -198
-137 -81 -14 -137 -30 -183 -53 -52 -26 -67 -29 -73 -18 -17 27 -101 23 -281
-13 -156 -32 -176 -34 -190 -21 -13 14 -12 22 15 73 16 31 31 60 32 63 2 4
-11 32 -27 63 l-30 56 36 40 c37 40 40 58 19 112 -4 11 10 34 44 72 45 50 51
61 51 101 0 42 3 46 43 69 29 17 86 31 191 49 103 18 164 34 202 53 49 25 56
26 97 15 35 -10 57 -10 122 3 203 40 246 43 264 22z m-1536 -745 c15 -16 27
-32 27 -35 0 -3 -21 -3 -46 1 -37 5 -46 3 -42 -8 3 -9 17 -13 41 -11 24 2 37
-1 37 -8 0 -8 -11 -11 -30 -8 -16 3 -30 1 -30 -4 0 -4 -7 -8 -15 -8 -8 0 -15
9 -15 20 0 21 30 90 39 90 4 0 18 -13 34 -29z m917 -420 c0 -19 -25 -29 -50
-19 -20 7 -22 11 -10 18 19 12 60 13 60 1z"/>
<path d="M6330 5834 c-100 -21 -226 -37 -261 -32 -23 4 -51 -2 -88 -18 -30
-14 -113 -34 -185 -46 -72 -11 -141 -24 -153 -29 -15 -6 -26 -25 -38 -66 -12
-42 -28 -68 -56 -95 -39 -37 -48 -61 -29 -73 25 -15 50 -89 58 -167 6 -65 11
-82 22 -79 80 19 210 41 240 41 22 0 41 4 45 10 3 5 12 7 20 4 14 -6 153 19
212 37 18 6 35 19 39 31 3 12 27 43 52 70 l45 48 -25 20 c-26 20 -48 84 -48
138 0 16 -2 31 -5 34 -8 8 -135 -24 -135 -34 0 -5 23 -8 50 -7 28 1 52 0 53
-2 2 -2 13 -39 24 -83 l20 -78 -44 -48 c-52 -56 -124 -91 -186 -90 -65 0 -250
-17 -269 -25 -10 -4 -18 -13 -18 -21 0 -8 -9 -14 -20 -14 -16 0 -20 7 -20 37
0 20 -7 63 -16 95 -15 54 -16 61 -1 75 20 20 34 10 42 -30 3 -17 11 -53 17
-79 l12 -48 22 21 c20 18 21 24 9 35 -9 9 -12 26 -8 48 4 28 2 35 -16 41 -35
11 -19 55 20 55 10 0 21 5 25 12 4 6 3 8 -4 4 -18 -11 -23 11 -10 41 16 37 20
39 92 53 34 6 69 19 78 27 23 21 48 9 48 -22 0 -28 11 -32 29 -11 9 10 8 16
-4 26 -19 16 -20 34 0 26 8 -3 66 4 130 16 64 11 118 18 121 15 4 -3 12 -42
20 -87 15 -84 28 -120 44 -120 15 0 16 32 3 105 -7 39 -12 87 -13 108 0 41 -3
42 -77 27 -26 -5 -133 -26 -238 -45 -104 -20 -200 -38 -212 -40 -12 -3 -35
-26 -51 -52 -46 -72 -106 -138 -120 -129 -20 12 -14 30 32 84 24 28 49 67 56
86 7 21 19 36 33 40 52 15 175 39 367 73 113 19 216 38 230 40 21 4 25 0 26
-19 1 -13 5 -78 9 -145 l8 -122 -52 -63 c-28 -35 -59 -80 -68 -100 -9 -21 -27
-41 -42 -47 -33 -13 -212 -44 -406 -71 -83 -11 -166 -25 -185 -30 -19 -6 -36
-10 -36 -10 -1 0 -5 52 -9 115 -4 63 -10 115 -14 115 -14 0 -73 -64 -62 -68
18 -6 41 -70 41 -115 0 -23 -9 -54 -22 -75 l-22 -35 30 7 c46 13 208 45 278
56 47 7 72 7 90 -1 21 -10 36 -8 84 10 32 12 114 32 181 44 l123 22 20 62 c18
59 72 133 105 144 9 3 9 16 -3 56 -15 52 -8 93 16 93 15 0 12 36 -5 50 -28 23
-30 78 -5 131 13 27 22 50 19 52 -2 2 -29 -2 -59 -9z"/>
<path d="M5910 5590 c0 -5 5 -10 11 -10 5 0 7 5 4 10 -3 6 -8 10 -11 10 -2 0
-4 -4 -4 -10z"/>
<path d="M5980 5566 c0 -16 23 -28 62 -33 39 -4 44 14 9 32 -37 19 -71 19 -71
1z"/>
<path d="M6095 5570 c3 -5 11 -10 16 -10 6 0 7 5 4 10 -3 6 -11 10 -16 10 -6
0 -7 -4 -4 -10z"/>
<path d="M5843 5545 c-28 -13 -55 -30 -59 -37 -6 -10 -5 -11 7 -1 19 16 76 2
94 -23 10 -15 13 -15 18 -2 3 10 -4 20 -20 27 l-26 12 22 15 c20 14 24 14 46
0 31 -21 35 -20 35 4 0 11 -6 20 -12 20 -7 0 -22 2 -33 5 -11 2 -43 -7 -72
-20z"/>
<path d="M6076 5505 c-19 -14 -16 -45 4 -45 6 0 8 5 5 11 -4 5 1 19 11 30 20
22 8 25 -20 4z"/>
<path d="M6010 5490 c0 -5 6 -10 14 -10 8 0 18 5 21 10 3 6 -3 10 -14 10 -12
0 -21 -4 -21 -10z"/>
<path d="M5783 5483 c-7 -3 -13 -11 -13 -19 0 -18 76 -19 86 -1 4 6 4 9 -1 5
-4 -4 -19 -1 -34 6 -14 7 -32 11 -38 9z"/>
<path d="M5932 5469 c-16 -25 -10 -36 8 -14 7 8 19 15 26 15 8 0 14 5 14 10 0
18 -35 10 -48 -11z"/>
<path d="M5998 5443 c4 -22 22 -33 22 -14 0 5 9 13 20 16 31 10 24 22 -13 21
-29 -1 -33 -4 -29 -23z"/>
<path d="M6060 5419 c-28 -25 -35 -36 -20 -28 36 18 80 51 80 61 0 15 -15 7
-60 -33z"/>
<path d="M5852 5409 c-36 -14 -21 -34 26 -35 43 0 46 3 36 30 -7 18 -27 19
-62 5z"/>
<path d="M5952 5393 c2 -17 9 -28 18 -28 9 0 16 11 18 28 3 22 -1 27 -18 27
-17 0 -21 -5 -18 -27z"/>
<path d="M5760 5404 c0 -3 5 -14 10 -25 12 -21 42 -27 34 -6 -5 13 -44 41 -44
31z"/>
<path d="M5884 6385 c-10 -8 -16 -15 -13 -15 4 0 49 -9 100 -19 106 -22 162
-17 168 14 3 18 2 18 -24 1 -20 -13 -38 -16 -69 -12 -22 4 -53 8 -68 9 -14 1
-30 5 -34 10 -4 4 -16 7 -26 7 -11 0 -16 5 -13 10 9 14 2 12 -21 -5z"/>
<path d="M5649 6237 c-111 -108 -203 -196 -634 -606 -198 -189 -368 -346 -381
-354 -21 -12 -17 -26 9 -32 18 -5 47 19 167 137 80 79 283 278 450 443 168
165 358 347 423 404 113 100 118 103 155 97 l37 -6 -35 20 c-19 10 -42 19 -50
19 -8 0 -72 -55 -141 -122z"/>
<path d="M5748 6239 c-45 -40 -171 -159 -278 -264 -431 -423 -621 -607 -744
-719 -49 -44 -23 -38 37 10 52 40 240 222 702 679 151 149 236 230 328 313 27
24 46 46 44 49 -3 2 -43 -28 -89 -68z"/>
<path d="M6220 6260 c0 -5 7 -7 15 -4 8 4 15 8 15 10 0 2 -7 4 -15 4 -8 0 -15
-4 -15 -10z"/>
<path d="M6275 6250 c-3 -5 1 -10 9 -10 9 0 16 5 16 10 0 6 -4 10 -9 10 -6 0
-13 -4 -16 -10z"/>
<path d="M6100 6230 c0 -5 5 -10 10 -10 6 0 10 5 10 10 0 6 -4 10 -10 10 -5 0
-10 -4 -10 -10z"/>
<path d="M6330 6225 c-10 -12 -10 -15 4 -15 9 0 16 7 16 15 0 8 -2 15 -4 15
-2 0 -9 -7 -16 -15z"/>
<path d="M6374 6229 c-3 -6 0 -15 7 -20 21 -13 25 -11 26 11 2 21 -21 28 -33
9z"/>
<path d="M6028 6223 c-30 -7 -20 -18 18 -20 30 -1 33 1 23 13 -6 8 -14 13 -18
13 -3 -1 -14 -3 -23 -6z"/>
<path d="M6124 6199 c-10 -17 17 -29 37 -16 13 8 15 13 6 19 -17 11 -35 10
-43 -3z"/>
<path d="M6220 6195 c0 -19 32 -33 38 -17 2 7 16 13 30 13 27 1 27 1 -3 9 -48
12 -65 11 -65 -5z"/>
<path d="M6020 6171 c0 -16 28 -20 40 -5 10 12 8 14 -14 14 -14 0 -26 -4 -26
-9z"/>
<path d="M6080 6170 c0 -5 5 -10 10 -10 6 0 10 5 10 10 0 6 -4 10 -10 10 -5 0
-10 -4 -10 -10z"/>
<path d="M6345 6160 c3 -5 8 -10 11 -10 2 0 4 5 4 10 0 6 -5 10 -11 10 -5 0
-7 -4 -4 -10z"/>
<path d="M6390 6160 c-18 -12 -2 -12 25 0 13 6 15 9 5 9 -8 0 -22 -4 -30 -9z"/>
<path d="M6281 6146 c-9 -11 -6 -12 14 -8 14 2 22 8 19 13 -8 13 -20 11 -33
-5z"/>
<path d="M6075 6141 c-6 -11 9 -23 19 -14 9 9 7 23 -3 23 -6 0 -12 -4 -16 -9z"/>
<path d="M5970 6131 c0 -6 5 -13 11 -17 8 -4 7 -9 -2 -15 -9 -6 0 -7 21 -3 45
8 63 24 28 24 -15 0 -30 5 -33 10 -8 13 -25 13 -25 1z"/>
<path d="M5900 6090 c0 -5 9 -10 19 -10 11 0 23 5 26 10 4 6 -5 10 -19 10 -14
0 -26 -4 -26 -10z"/>
<path d="M7295 6085 c-16 -8 -39 -14 -51 -15 -41 0 -104 -98 -104 -162 0 -30
38 -96 83 -145 l41 -45 -64 -61 c-83 -78 -248 -235 -370 -351 -52 -50 -127
-120 -165 -155 -98 -91 -359 -337 -486 -458 -72 -69 -101 -104 -92 -108 24 -8
13 -18 398 354 246 237 358 345 420 401 175 160 341 319 368 354 18 22 27 37
21 33 -7 -4 -17 -1 -23 6 -8 11 -5 13 18 9 30 -4 40 3 215 158 99 87 101 79
-40 146 -111 52 -130 57 -169 39z m134 -55 c45 -22 91 -40 102 -40 10 0 19 -4
19 -9 0 -13 -169 -175 -213 -205 -21 -14 -44 -26 -52 -26 -18 0 -104 97 -111
127 -10 37 4 115 24 143 17 22 78 45 133 49 8 0 52 -17 98 -39z"/>
<path d="M7279 6013 c5 -10 26 -34 45 -53 30 -28 40 -32 54 -24 10 7 32 15 49
18 17 4 37 14 44 22 16 20 1 18 -61 -8 -39 -16 -55 -19 -58 -10 -2 7 -10 18
-17 26 -8 7 -11 16 -8 20 3 3 -6 10 -21 16 -36 13 -38 13 -27 -7z"/>
<path d="M7221 6006 c-9 -11 -6 -15 14 -18 28 -6 32 3 11 21 -10 8 -16 8 -25
-3z"/>
<path d="M7356 6011 c5 -5 23 -12 39 -16 l30 -6 -25 15 c-28 17 -60 22 -44 7z"/>
<path d="M7236 5961 c-46 -9 -43 -28 4 -28 26 0 40 4 40 13 0 18 -10 21 -44
15z"/>
<path d="M7275 5911 c-10 -17 -65 -23 -82 -9 -14 11 -16 11 -8 -2 18 -33 28
-40 39 -31 6 5 24 11 41 13 19 2 31 9 33 21 4 18 -13 24 -23 8z"/>
<path d="M7320 5904 c0 -14 3 -14 15 -4 8 7 15 14 15 16 0 2 -7 4 -15 4 -8 0
-15 -7 -15 -16z"/>
<path d="M7430 5890 c-14 -10 -22 -21 -19 -24 3 -3 16 5 29 19 28 30 24 32
-10 5z"/>
<path d="M7325 5869 c-4 -6 -5 -11 -4 -12 2 -1 14 -8 27 -15 19 -10 22 -10 22
4 0 8 5 12 10 9 6 -3 10 -2 10 3 0 5 -10 12 -22 16 -31 8 -36 8 -43 -5z"/>
<path d="M7270 5863 c-45 -14 -46 -14 -26 -25 14 -8 22 -6 34 6 18 17 14 25
-8 19z"/>
<path d="M7276 5811 c5 -5 19 -12 32 -16 16 -5 22 -2 22 9 0 11 -10 16 -32 16
-19 0 -28 -4 -22 -9z"/>
<path d="M6810 6009 c0 -5 5 -7 10 -4 6 3 10 8 10 11 0 2 -4 4 -10 4 -5 0 -10
-5 -10 -11z"/>
<path d="M6820 5979 c0 -5 10 -9 22 -9 12 0 18 3 14 7 -10 11 -36 12 -36 2z"/>
<path d="M6883 5966 c-4 -8 -19 -16 -33 -19 -18 -3 -15 -5 13 -6 31 -1 37 2
37 19 0 23 -6 26 -17 6z"/>
<path d="M6926 5951 c-9 -14 27 -31 44 -21 17 10 13 15 -17 24 -12 4 -24 2
-27 -3z"/>
<path d="M6835 5897 c-4 -11 -3 -23 4 -30 15 -15 19 -7 11 23 -6 22 -8 23 -15
7z"/>
<path d="M6887 5903 c-15 -14 -6 -33 16 -33 32 0 40 10 19 26 -20 15 -26 17
-35 7z"/>
<path d="M6842 5805 c0 -16 2 -22 5 -12 2 9 2 23 0 30 -3 6 -5 -1 -5 -18z"/>
<path d="M6866 5818 c2 -4 18 -6 34 -6 16 1 27 5 24 9 -2 5 -18 7 -33 6 -16
-1 -27 -5 -25 -9z"/>
<path d="M6980 5821 c0 -5 5 -13 10 -16 6 -3 10 -2 10 4 0 5 -4 13 -10 16 -5
3 -10 2 -10 -4z"/>
<path d="M6928 5789 c-3 -8 0 -21 5 -30 14 -22 -18 -58 -35 -41 -8 8 -7 16 3
28 12 15 12 16 -10 9 -16 -5 -27 -3 -33 6 -6 10 -8 5 -6 -16 2 -16 8 -30 15
-30 19 0 26 -13 18 -32 -7 -17 -8 -17 -15 2 -7 16 -9 13 -9 -14 l-1 -35 36 35
c20 18 45 47 56 62 l21 29 -20 20 c-16 15 -22 17 -25 7z"/>
<path d="M7170 5739 c0 -9 -17 -29 -38 -46 -48 -39 -199 -179 -377 -352 -78
-75 -169 -162 -203 -194 -34 -32 -60 -62 -57 -67 9 -14 45 -19 45 -6 0 7 73
82 162 167 90 85 226 214 303 288 77 74 153 147 170 162 28 27 29 30 12 46
-15 15 -17 15 -17 2z"/>
<path d="M4465 5108 l-126 -121 103 -42 c57 -23 129 -54 162 -70 l58 -27 27
19 c32 24 66 83 82 144 12 43 11 50 -14 101 -24 49 -34 58 -92 86 -35 18 -67
32 -69 32 -2 0 -61 -55 -131 -122z m199 59 c83 -47 105 -120 62 -205 -16 -31
-38 -58 -55 -67 -27 -14 -33 -13 -98 16 -37 17 -71 36 -74 41 -3 5 -8 9 -10 8
-5 -3 -92 22 -99 27 -8 7 205 203 220 203 8 0 33 -10 54 -23z"/>
<path d="M4571 5137 c-6 -8 -8 -17 -4 -20 7 -8 33 11 33 24 0 13 -16 11 -29
-4z"/>
<path d="M4620 5133 c-1 -5 -10 -19 -21 -32 -18 -22 -21 -23 -37 -7 -20 17
-42 21 -42 8 0 -15 35 -42 54 -42 9 0 19 7 23 15 5 14 8 14 28 1 21 -14 23
-14 18 3 -2 10 3 25 11 34 9 8 16 18 16 21 0 9 -50 7 -50 -1z"/>
<path d="M4672 5098 c-13 -13 -16 -38 -4 -38 13 1 42 27 42 39 0 15 -23 14
-38 -1z"/>
<path d="M4500 5062 c0 -15 11 -21 27 -15 12 5 12 7 1 14 -17 11 -28 11 -28 1z"/>
<path d="M4548 5019 c-38 -19 -52 -49 -23 -49 8 0 19 -9 25 -21 7 -11 14 -18
17 -15 3 3 0 12 -7 21 -19 23 -5 45 29 45 16 0 33 5 36 11 16 25 -33 30 -77 8z"/>
<path d="M4650 5031 c0 -6 5 -13 11 -17 6 -3 20 -20 30 -38 14 -21 19 -25 17
-11 -2 11 3 25 12 32 12 9 12 14 3 24 -15 15 -73 23 -73 10z"/>
<path d="M4445 5011 c-7 -12 32 -34 45 -26 6 3 10 13 10 21 0 16 -45 20 -55 5z"/>
<path d="M4603 4973 c-7 -2 -13 -13 -13 -24 0 -26 46 -37 67 -16 28 28 -12 58
-54 40z"/>
<path d="M6390 4991 c-42 -42 -147 -141 -233 -220 -150 -137 -167 -160 -121
-161 6 0 46 35 90 78 278 271 353 342 363 342 17 0 13 18 -6 28 -14 6 -34 -8
-93 -67z"/>
<path d="M6010 4893 c-8 -2 -29 -11 -47 -19 -17 -8 -38 -14 -47 -14 -14 0 -39
-39 -31 -48 2 -2 17 3 33 12 26 13 32 14 42 1 6 -8 9 -19 5 -25 -15 -24 15 -7
61 35 27 25 52 45 56 45 5 0 8 5 8 10 0 10 -53 12 -80 3z m9 -37 c-22 -25 -49
-25 -49 -1 0 8 12 16 28 18 15 2 30 5 34 6 5 0 -2 -10 -13 -23z"/>
<path d="M4727 4842 c-10 -10 -17 -22 -17 -26 0 -8 744 -376 760 -376 5 0 10
6 10 13 0 8 -157 92 -369 197 -251 125 -367 188 -364 197 7 18 -1 16 -20 -5z"/>
<path d="M5601 4829 c-17 -14 -27 -17 -35 -9 -5 5 -17 10 -25 10 -9 0 -3 -8
14 -18 33 -20 75 -18 75 4 0 16 16 19 25 4 4 -7 12 -7 25 0 13 7 21 7 25 0 8
-13 65 -13 65 0 0 6 7 10 15 10 9 0 12 -6 9 -15 -5 -12 2 -15 29 -15 23 0 37
6 41 16 11 28 7 34 -21 34 -26 0 -26 -1 -7 -15 19 -15 19 -15 -1 -11 -11 1
-27 6 -35 9 -8 3 -51 8 -95 10 -69 4 -84 2 -104 -14z"/>
<path d="M5395 4800 c-16 -7 -13 -9 15 -8 19 0 49 4 65 8 27 7 26 8 -15 8 -25
0 -54 -3 -65 -8z"/>
<path d="M5675 4787 c-21 -16 -14 -23 37 -32 31 -6 38 -4 48 14 10 20 9 21
-13 16 -14 -4 -28 -2 -31 4 -9 14 -18 14 -41 -2z"/>
<path d="M5748 4574 c-94 -22 -193 -79 -207 -118 -8 -19 -2 -23 55 -42 35 -11
67 -23 70 -27 4 -4 19 -7 32 -7 14 0 33 -6 41 -14 32 -28 57 -28 76 0 14 22
15 31 5 55 -14 32 -21 34 -52 18 -19 -10 -20 -9 -15 10 4 16 1 21 -14 21 -10
0 -19 7 -19 15 0 8 -12 18 -26 21 l-26 7 33 14 c41 17 54 13 54 -18 0 -17 6
-25 23 -27 33 -5 41 26 11 49 l-24 19 30 0 c17 0 48 3 70 6 l40 6 -32 -21
c-18 -11 -33 -28 -33 -36 0 -8 -4 -15 -10 -15 -16 0 -12 -26 10 -65 26 -46 25
-55 -12 -84 -28 -22 -33 -23 -62 -12 -17 8 -58 22 -91 33 -33 10 -73 25 -88
33 -16 8 -38 15 -48 15 -11 0 -29 5 -41 11 -11 6 -22 9 -24 7 -2 -3 70 -37
161 -77 l164 -73 111 103 c61 57 118 115 127 128 15 24 15 26 -12 47 -45 36
-171 44 -277 18z m227 -40 c14 -9 25 -26 25 -37 0 -11 -2 -18 -5 -15 -3 3 -19
-7 -35 -23 -34 -34 -44 -35 -87 -9 -37 22 -43 40 -14 40 10 0 21 9 24 21 4 15
12 20 29 17 29 -4 27 -21 -3 -28 -34 -8 -36 -30 -3 -30 26 0 64 24 64 41 0 5
-12 15 -27 23 -21 11 -23 15 -10 16 10 0 29 -7 42 -16z m-287 -46 c19 -19 14
-29 -12 -22 -33 8 -41 -11 -12 -29 21 -14 25 -14 39 1 15 15 18 14 39 -5 13
-11 33 -24 46 -28 36 -10 25 -26 -15 -23 -22 2 -38 8 -38 16 0 14 -5 15 -40 6
-19 -5 -31 0 -48 18 -12 13 -30 22 -41 20 -39 -8 -39 16 0 36 47 24 66 26 82
10z m212 -89 c0 -18 -35 -5 -38 14 -3 16 -1 17 17 7 12 -6 21 -15 21 -21z"/>
<path d="M6095 4511 c3 -2 -9 -21 -27 -40 -31 -33 -30 -33 10 4 23 21 42 40
42 40 0 1 -7 2 -15 2 -8 0 -13 -3 -10 -6z"/>
<path d="M4665 4474 c22 -18 85 -47 90 -42 2 2 -22 16 -53 31 -31 15 -48 20
-37 11z"/>
<path d="M5964 4378 c-43 -49 -46 -61 -6 -23 23 21 42 40 42 42 0 10 -19 0
-36 -19z"/>
<path d="M6315 3798 l-40 -42 37 30 c30 24 55 54 45 54 -2 0 -21 -19 -42 -42z"/>
<path d="M7795 4510 c-3 -6 1 -7 9 -4 18 7 21 14 7 14 -6 0 -13 -4 -16 -10z"/>
<path d="M7729 4463 c-13 -16 -12 -17 4 -4 9 7 17 15 17 17 0 8 -8 3 -21 -13z"/>
<path d="M7679 4413 c-13 -16 -12 -17 4 -4 16 13 21 21 13 21 -2 0 -10 -8 -17
-17z"/>
<path d="M8420 4381 c5 -11 15 -23 21 -27 6 -3 3 5 -6 20 -20 30 -30 35 -15 7z"/>
<path d="M2495 3881 c-50 -13 -92 -39 -123 -77 -50 -60 -48 -137 4 -185 l27
-24 -17 32 c-19 38 -20 43 -5 43 5 0 8 -4 5 -9 -7 -11 75 -24 97 -15 13 5 17
0 17 -20 0 -14 -5 -26 -12 -26 -6 0 -9 -3 -6 -6 4 -3 20 2 36 10 27 14 30 19
26 55 l-5 39 46 6 c25 3 65 9 90 12 38 5 45 3 45 -11 0 -12 6 -9 26 12 14 15
23 21 21 13 -2 -8 0 -24 6 -35 6 -11 14 -38 18 -60 l6 -40 1 45 c1 56 -16 106
-54 154 -51 64 -172 107 -249 87z m159 -67 c3 -8 2 -12 -4 -9 -6 3 -10 10 -10
16 0 14 7 11 14 -7z m96 -59 c0 -8 -4 -16 -9 -19 -5 -4 -7 4 -3 16 4 16 2 19
-8 13 -9 -5 -11 -4 -6 4 9 14 26 5 26 -14z m-163 -41 c-3 -3 -12 -4 -19 -1 -8
3 -5 6 6 6 11 1 17 -2 13 -5z m-85 -36 c-7 -7 -12 -8 -12 -2 0 14 12 26 19 19
2 -3 -1 -11 -7 -17z"/>
<path d="M2740 3697 c0 -8 6 -14 14 -14 8 0 12 6 9 14 -3 7 -9 13 -14 13 -5 0
-9 -6 -9 -13z"/>
<path d="M6772 3601 c-22 -16 -43 -35 -47 -41 -5 -9 73 46 94 66 16 15 -13 -1
-47 -25z"/>
<path d="M6695 3529 c-4 -6 -5 -12 -2 -15 2 -3 7 2 10 11 7 17 1 20 -8 4z"/>
<path d="M3979 3453 c-13 -16 -12 -17 4 -4 9 7 17 15 17 17 0 8 -8 3 -21 -13z"/>
<path d="M7005 3374 c-52 -17 -75 -47 -74 -93 1 -20 3 -27 6 -16 2 11 6 29 8
40 6 29 56 55 107 55 33 0 54 -7 81 -27 76 -59 87 -136 32 -228 -26 -42 -30
-53 -14 -39 56 51 78 158 46 221 -21 39 -71 81 -105 89 -15 3 -32 7 -37 9 -6
1 -29 -3 -50 -11z"/>
<path d="M2660 3054 c0 -14 27 -50 33 -44 3 3 -3 16 -13 30 -11 14 -20 20 -20
14z"/>
<path d="M7125 2957 c-34 -18 -56 -22 -147 -22 -106 0 -114 -8 -19 -21 54 -7
140 13 194 46 43 27 22 24 -28 -3z"/>
<path d="M6837 2949 c7 -7 15 -10 18 -7 3 3 -2 9 -12 12 -14 6 -15 5 -6 -5z"/>
<path d="M4100 2906 c-14 -8 -28 -12 -32 -10 -5 3 -8 1 -8 -5 0 -5 -9 -12 -19
-16 -31 -10 -90 -76 -83 -93 3 -10 1 -13 -6 -8 -8 5 -10 2 -5 -10 5 -15 7 -14
16 2 28 51 75 98 126 124 31 16 52 29 46 29 -5 0 -21 -6 -35 -13z"/>
<path d="M6967 2813 c-3 -5 6 -9 20 -10 14 0 29 -7 34 -15 5 -7 9 -8 9 -2 0
25 -51 47 -63 27z"/>
<path d="M6850 2763 c-113 -47 -375 -124 -530 -157 -250 -52 -384 -67 -630
-73 -345 -8 -629 16 -837 70 -29 8 -57 11 -63 7 -12 -7 126 -39 280 -65 261
-45 748 -44 999 1 47 8 111 19 141 24 73 12 217 43 310 68 177 47 430 139 430
157 0 8 -11 5 -100 -32z"/>
<path d="M3927 2733 c-4 -15 -9 -39 -13 -53 -5 -17 -3 -22 3 -15 17 16 32 71
23 84 -5 8 -9 3 -13 -16z"/>
<path d="M6795 2649 c-453 -171 -1054 -245 -1565 -194 -166 16 -436 67 -482
90 -31 15 -31 15 -13 -5 23 -26 55 -35 215 -64 248 -45 315 -50 605 -51 425 0
723 44 1100 161 85 27 235 84 235 90 0 7 -15 3 -95 -27z"/>
<path d="M3901 2624 c0 -11 3 -14 6 -6 3 7 2 16 -1 19 -3 4 -6 -2 -5 -13z"/>
<path d="M7134 2594 c-18 -14 -18 -14 6 -3 31 14 36 19 24 19 -6 0 -19 -7 -30
-16z"/>
<path d="M6840 2320 c-9 -6 -10 -10 -3 -10 6 0 15 5 18 10 8 12 4 12 -15 0z"/>
<path d="M6400 2270 c-8 -5 -10 -10 -5 -10 6 0 17 5 25 10 8 5 11 10 5 10 -5
0 -17 -5 -25 -10z"/>
<path d="M6188 3093 c7 -3 16 -2 19 1 4 3 -2 6 -13 5 -11 0 -14 -3 -6 -6z"/>
<path d="M6038 3073 c7 -3 16 -2 19 1 4 3 -2 6 -13 5 -11 0 -14 -3 -6 -6z"/>
<path d="M1528 8503 c-9 -10 -25 -37 -37 -60 -20 -41 -23 -43 -67 -43 -51 0
-112 -22 -120 -44 -3 -8 4 -29 15 -45 18 -24 22 -48 25 -127 3 -87 7 -100 33
-138 16 -22 35 -55 42 -73 11 -27 20 -33 56 -39 43 -6 115 2 145 16 71 33 74
37 94 112 10 40 23 76 29 79 5 4 6 12 3 18 -4 6 -4 11 1 11 4 0 8 10 9 23 2
45 14 81 38 115 19 27 23 39 15 54 -13 25 -50 38 -104 38 -41 0 -47 3 -79 48
-62 83 -70 87 -98 55z m59 -27 c10 -13 26 -38 35 -55 14 -25 24 -31 50 -31 49
0 105 -18 112 -36 6 -15 -25 -52 -82 -96 -15 -13 -22 -29 -22 -54 0 -42 -15
-74 -35 -74 -8 0 -29 9 -46 19 -30 18 -34 19 -73 4 -23 -9 -45 -19 -50 -24
-21 -19 -36 4 -36 56 0 52 -1 55 -56 104 -61 54 -65 74 -19 91 15 6 46 10 70
10 42 0 46 2 66 43 38 76 55 84 86 43z"/>
<path d="M2595 8342 c-13 -24 -35 -45 -65 -59 -60 -31 -65 -43 -35 -87 21 -31
25 -49 25 -110 0 -48 5 -77 13 -84 18 -16 133 -7 162 12 15 10 27 30 31 52 5
25 9 32 15 22 5 -7 6 9 2 39 -5 43 -2 55 16 74 32 35 27 54 -22 73 -34 13 -47
25 -65 61 -27 56 -50 58 -77 7z m67 -17 c16 -33 31 -48 60 -60 46 -18 47 -32
8 -70 -22 -21 -30 -38 -30 -63 0 -30 -2 -33 -22 -26 -13 5 -34 8 -48 8 -14 0
-35 -3 -47 -8 -21 -7 -23 -4 -23 25 0 25 -10 43 -36 70 -40 41 -39 54 6 64 31
7 74 50 85 85 10 31 23 24 47 -25z"/>
<path d="M8613 8333 c-16 -21 -53 -83 -82 -138 -29 -55 -55 -102 -57 -104 -2
-3 -59 -7 -125 -11 -119 -6 -122 -6 -146 -35 -27 -34 -26 -84 2 -115 12 -13
16 -44 18 -134 l2 -116 33 -31 c38 -35 47 -55 71 -151 18 -68 14 -88 -16 -88
-24 0 -13 -35 30 -93 26 -36 54 -62 75 -69 17 -7 32 -16 32 -21 0 -4 5 -5 10
-2 6 3 10 17 10 31 0 26 -2 25 100 30 30 2 79 6 108 9 50 7 52 6 52 -17 0 -37
25 -57 46 -36 4 4 13 3 20 -3 8 -7 14 -7 19 1 3 5 15 10 25 10 23 0 108 84
116 114 3 12 3 35 0 51 -3 16 0 36 7 45 7 8 19 37 26 65 6 27 16 52 20 55 5 3
12 25 16 50 4 25 15 77 26 115 10 39 20 87 22 107 2 20 18 55 36 79 37 52 40
91 7 124 -28 28 -106 43 -139 27 -19 -9 -14 -11 29 -11 58 -1 104 -29 104 -63
0 -25 -31 -78 -46 -78 -6 0 -37 -29 -70 -64 -87 -94 -87 -94 -80 -129 4 -18 9
-50 11 -72 15 -154 15 -154 -1 -163 -18 -10 -64 -4 -64 9 0 5 -6 9 -13 9 -24
0 -118 50 -112 60 3 6 0 10 -9 10 -8 0 -16 6 -19 13 -3 9 -7 9 -20 -1 -9 -8
-24 -12 -34 -11 -10 2 -53 -16 -95 -39 -105 -58 -132 -65 -154 -41 -16 17 -16
27 -5 107 7 48 16 104 21 126 8 38 8 39 -52 95 -34 31 -70 64 -80 74 -10 9
-18 15 -18 12 0 -2 -11 7 -24 20 -39 39 -42 63 -10 96 26 28 32 29 115 29 148
0 142 -4 206 124 59 119 86 156 114 156 25 0 46 -31 109 -159 47 -97 57 -111
79 -111 21 0 23 2 9 13 -8 6 -39 57 -68 112 -72 137 -94 165 -130 165 -21 0
-36 -10 -57 -37z"/>
<path d="M2222 7910 c14 -22 24 -19 15 5 -4 8 -11 15 -17 15 -6 0 -6 -7 2 -20z"/>
<path d="M1980 2673 c0 -43 5 -41 13 5 4 18 2 32 -3 32 -6 0 -10 -16 -10 -37z"/>
<path d="M7751 2254 c0 -11 3 -14 6 -6 3 7 2 16 -1 19 -3 4 -6 -2 -5 -13z"/>
<path d="M7712 1910 c0 -19 2 -27 5 -17 2 9 2 25 0 35 -3 9 -5 1 -5 -18z"/>
<path d="M2751 1744 c0 -11 3 -14 6 -6 3 7 2 16 -1 19 -3 4 -6 -2 -5 -13z"/>
<path d="M2990 1685 c-7 -9 -10 -19 -6 -22 4 -4 11 -1 16 6 6 11 9 10 13 -5 4
-16 5 -16 6 3 1 28 -13 37 -29 18z"/>
<path d="M7136 1683 c-4 -9 -4 -18 -1 -21 3 -3 5 0 5 6 0 6 8 12 18 14 15 3
16 4 0 10 -10 4 -19 1 -22 -9z"/>
<path d="M2938 1683 c7 -3 16 -2 19 1 4 3 -2 6 -13 5 -11 0 -14 -3 -6 -6z"/>
<path d="M3540 1430 c0 -11 2 -20 4 -20 2 0 6 9 9 20 3 11 1 20 -4 20 -5 0 -9
-9 -9 -20z"/>
<path d="M3567 1443 c-4 -3 -7 -16 -7 -27 1 -20 1 -20 14 -3 13 16 14 16 19
-4 5 -19 12 -21 59 -18 100 4 106 3 111 -33 2 -18 5 -5 5 30 l2 62 -98 0 c-54
0 -102 -3 -105 -7z"/>
<path d="M4806 1178 c3 -4 9 -8 15 -8 5 0 9 4 9 8 0 5 -7 9 -15 9 -8 0 -12 -4
-9 -9z"/>
<path d="M5655 1180 c-3 -5 -2 -10 4 -10 5 0 13 5 16 10 3 6 2 10 -4 10 -5 0
-13 -4 -16 -10z"/>
<path d="M4581 1164 c0 -11 3 -14 6 -6 3 7 2 16 -1 19 -3 4 -6 -2 -5 -13z"/>
</g>
</svg>
